<?xml version="1.0" encoding="utf-8"?>
<!-- Generator: Adobe Illustrator 23.0.0, SVG Export Plug-In . SVG Version: 6.00 Build 0)  -->
<svg version="1.1" id="Layer_1" xmlns="http://www.w3.org/2000/svg" xmlns:xlink="http://www.w3.org/1999/xlink" x="0px" y="0px"
	 viewBox="0 0 100 100" style="enable-background:new 0 0 100 100;" xml:space="preserve">
<style type="text/css">
	.st0{fill:#B6E2E5;}
	.st1{fill:#545354;}
	.st2{fill:#676868;}
	.st3{fill:none;}
	.st4{fill:#2E2E2E;}
	.st5{fill:#261B1A;}
	.st6{fill:#4A4949;}
	.st7{fill:#E3A33B;}
	.st8{fill:#FFD111;}
	.st9{fill:#41617A;}
	.st10{fill:#2D455E;}
	.st11{fill:#F28021;}
	.st12{fill:#EDB31F;}
	.st13{fill:#F7CB6D;}
	.st14{fill:#E8395A;}
	.st15{fill:#BB3849;}
	.st16{fill:#DBDAD9;}
	.st17{fill:#FFFFFF;}
	.st18{fill:#E6C532;}
	.st19{fill:#CDAF2D;}
	.st20{fill:#82CFD0;}
	.st21{fill:#A6DCE3;}
	.st22{fill:#39A4DD;}
	.st23{fill:#DFECF9;}
	.st24{fill:#CB2728;}
	.st25{fill:#E7ECEB;}
	.st26{fill:#D9E1E3;}
	.st27{fill:#E7EBE9;}
	.st28{fill:#BE2827;}
	.st29{fill:#93D0D6;}
	.st30{fill:#FFF9F6;}
	.st31{fill:#364A5E;}
	.st32{fill:#C1B5A0;}
	.st33{fill:#DB4744;}
	.st34{fill:#D0C2A7;}
	.st35{fill:#DFDAC4;}
	.st36{fill:#EEE7D8;}
	.st37{fill:#FFFFFA;}
	.st38{fill:#00A4A1;}
	.st39{fill:#D7DBE0;}
	.st40{fill:#515352;}
	.st41{fill:#26374B;}
	.st42{fill:#C9E9EB;}
	.st43{fill:#B5D5D6;}
	.st44{fill:#BCBDBF;}
	.st45{fill:#F37921;}
	.st46{fill:#EDF7F9;}
	.st47{fill:#4F5A6B;}
	.st48{fill:#2F3C51;}
	.st49{fill:#E3A726;}
	.st50{fill:#CC962B;}
	.st51{fill:#199CB9;}
	.st52{fill:#FFD064;}
	.st53{fill:#65BBC9;}
	.st54{fill:#5A9BB2;}
	.st55{fill:#EE803F;}
	.st56{fill:#D86F38;}
	.st57{fill-rule:evenodd;clip-rule:evenodd;fill:#A4A2A2;}
	.st58{fill:#CAC9C7;}
	.st59{fill:#A3832E;}
	.st60{fill:#F4E5A8;}
	.st61{fill:#FFFDF4;}
	.st62{fill:#8A8286;}
	.st63{fill:#EAA7A0;}
	.st64{fill:#84CEEB;}
	.st65{fill:#C9DC5A;}
	.st66{fill:#F0BA59;}
	.st67{fill:#C0BFBF;}
	.st68{fill:#0E1D2D;}
	.st69{fill:#C6D8DD;}
	.st70{fill:#F15928;}
	.st71{clip-path:url(#SVGID_2_);}
	.st72{font-family:'Nanami-Hvy';}
	.st73{font-size:14px;}
</style>
<g>
	<path class="st0" d="M8.01,53.71l2.02,4.49c0.28,0.63,0.09,1.42-0.42,1.76c-0.48,0.32-1.07,0.15-1.38-0.39
		c-0.58,0.34-1.29,0.08-1.6-0.62c-0.08-0.18-0.13-0.38-0.15-0.58c-0.57-0.04-1.08-0.44-1.36-1.05c-0.44-0.99-0.15-2.24,0.66-2.78
		c0.08-0.05,0.16-0.1,0.24-0.13c-0.02-0.49,0.2-0.96,0.55-1.2C7.08,52.85,7.73,53.08,8.01,53.71z M8.38,59.31
		c0.22,0.49,0.72,0.67,1.12,0.4c0.4-0.27,0.54-0.88,0.32-1.37L7.8,53.85c-0.22-0.49-0.72-0.67-1.12-0.4
		c-0.3,0.2-0.46,0.61-0.42,1.02l0.01,0.12l-0.1,0.04c-0.1,0.04-0.2,0.09-0.29,0.15c-0.69,0.47-0.94,1.54-0.56,2.39
		c0.25,0.57,0.74,0.91,1.27,0.91l0.12,0l0,0.14c0,0.2,0.04,0.4,0.12,0.58c0.26,0.58,0.86,0.8,1.33,0.47
		c0.01-0.01,0.03-0.02,0.04-0.03l0.11-0.08L8.38,59.31z"/>
	<path class="st0" d="M19.5,35.28c-0.03,0-0.05-0.01-0.07-0.03c-0.04-0.03-0.05-0.09-0.04-0.15l0.38-2.22l-1.29-1.6
		c-0.03-0.04-0.04-0.1-0.03-0.15c0.02-0.05,0.06-0.09,0.1-0.1l1.85-0.29l0.88-2.01c0.02-0.05,0.07-0.08,0.11-0.08
		c0.05,0,0.09,0.03,0.11,0.08l0.76,2.04l1.83,0.36c0.05,0.01,0.08,0.05,0.1,0.1c0.01,0.05,0,0.11-0.04,0.15l-1.38,1.55l0.25,2.23
		c0.01,0.06-0.01,0.11-0.05,0.14c-0.04,0.03-0.09,0.04-0.13,0.01l-1.61-1.08l-1.67,1.02C19.54,35.27,19.52,35.28,19.5,35.28z
		 M18.82,31.29l1.16,1.44c0.03,0.03,0.04,0.08,0.03,0.13l-0.34,2l1.51-0.92c0.04-0.02,0.08-0.02,0.11,0l1.45,0.97l-0.23-2.01
		c-0.01-0.05,0.01-0.1,0.04-0.13l1.24-1.4l-1.65-0.32c-0.04-0.01-0.07-0.04-0.09-0.08l-0.69-1.83l-0.79,1.81
		c-0.02,0.04-0.05,0.07-0.09,0.08L18.82,31.29z"/>
	<path class="st0" d="M33.13,66.96c0.04,0.02,0.08,0.03,0.13,0.04c0.1,0.01,0.19-0.01,0.28-0.07l4-2.76
		c0.09-0.07,0.17-0.17,0.21-0.29c0.01-0.03,0.02-0.06,0.02-0.09c0-0.02,0.01-0.04,0.01-0.06c0.01-0.11-0.01-0.22-0.06-0.31
		l-1.4-3.05c-0.04-0.08-0.09-0.15-0.16-0.2c-0.04-0.03-0.08-0.05-0.12-0.06c-0.12-0.04-0.24-0.01-0.34,0.06l-4,2.76
		c-0.09,0.07-0.17,0.17-0.21,0.29c-0.02,0.05-0.03,0.1-0.03,0.16c-0.01,0.11,0.01,0.22,0.06,0.32l1.4,3.05
		C32.95,66.83,33.03,66.91,33.13,66.96z M35.45,63.19l0.67-2.77c0.01,0.02,0.02,0.03,0.03,0.05l1.4,3.05
		c0.02,0.04,0.03,0.08,0.03,0.12L35.45,63.19z M33.98,64.21l-0.81,2.51c-0.04-0.03-0.07-0.07-0.09-0.12l-1.4-3.05
		c-0.01-0.03-0.02-0.07-0.03-0.1L33.98,64.21z M37.53,63.86c-0.02,0.04-0.05,0.08-0.09,0.1l-4,2.76c-0.03,0.02-0.05,0.03-0.08,0.04
		l1.14-3.54L37.53,63.86z M35.26,63.15l-0.86-0.18c-0.02,0-0.03,0.01-0.04,0.03l-0.32,1l-2.36-0.77c0.02-0.05,0.06-0.09,0.1-0.12
		l4-2.76c0.05-0.03,0.11-0.05,0.16-0.04L35.26,63.15z"/>
	<g>
		<g>
			<path class="st0" d="M14.9,66.42l-0.38-0.01c-0.01-0.02-0.01-0.05-0.02-0.07l0.31-0.26c0.02-0.02,0.03-0.04,0.04-0.07
				c0-0.03,0-0.06-0.01-0.08l-0.44-0.77c-0.02-0.03-0.04-0.04-0.07-0.05c-0.02,0-0.04,0.01-0.05,0.02l-0.31,0.26
				c-0.02-0.01-0.03-0.03-0.05-0.04l0.13-0.44c0.02-0.06-0.01-0.12-0.05-0.14l-0.73-0.31c-0.01,0-0.02-0.01-0.03-0.01
				c-0.04,0-0.07,0.03-0.09,0.07l-0.13,0.44c-0.02,0-0.04,0-0.06,0l-0.1-0.44c-0.01-0.04-0.04-0.07-0.08-0.08c-0.01,0-0.02,0-0.03,0
				L12,64.74c-0.02,0.01-0.04,0.03-0.05,0.05c-0.01,0.03-0.01,0.05-0.01,0.08l0.1,0.44c-0.02,0.01-0.03,0.03-0.05,0.04l-0.3-0.28
				c-0.01-0.01-0.03-0.02-0.05-0.02c-0.03,0-0.06,0.02-0.07,0.04l-0.48,0.76c-0.01,0.02-0.02,0.05-0.02,0.08
				c0,0.03,0.01,0.05,0.03,0.07l0.3,0.28c-0.01,0.02-0.01,0.05-0.02,0.07l-0.38-0.01c-0.05,0-0.09,0.05-0.09,0.11l-0.03,0.94
				c0,0.06,0.04,0.11,0.09,0.11l0.38,0.01c0.01,0.02,0.01,0.05,0.02,0.07l-0.31,0.26c-0.04,0.03-0.05,0.1-0.02,0.15l0.44,0.77
				c0.02,0.03,0.04,0.04,0.07,0.05c0.02,0,0.04-0.01,0.05-0.02l0.31-0.26c0.02,0.01,0.03,0.03,0.05,0.04l-0.13,0.44
				c-0.01,0.03-0.01,0.06,0,0.08c0.01,0.03,0.03,0.04,0.05,0.05l0.73,0.31c0.01,0,0.02,0.01,0.03,0.01c0.04,0,0.07-0.03,0.09-0.07
				l0.13-0.44c0.02,0,0.04,0,0.06,0l0.1,0.44c0.01,0.04,0.04,0.07,0.08,0.08c0.01,0,0.02,0,0.03,0l0.75-0.28
				c0.02-0.01,0.04-0.03,0.05-0.05c0.01-0.03,0.01-0.05,0.01-0.08l-0.1-0.44c0.02-0.01,0.03-0.03,0.05-0.04l0.3,0.28
				c0.02,0.02,0.04,0.02,0.07,0.02c0.02,0,0.04-0.02,0.06-0.04l0.48-0.76c0.01-0.02,0.02-0.05,0.02-0.08c0-0.03-0.01-0.05-0.03-0.07
				l-0.3-0.28c0.01-0.02,0.01-0.05,0.02-0.07l0.38,0.01c0.05,0,0.09-0.05,0.09-0.11l0.03-0.94C14.99,66.47,14.95,66.42,14.9,66.42z
				 M14.34,67.44c-0.02,0.07-0.04,0.13-0.06,0.2c-0.02,0.05-0.01,0.1,0.03,0.13l0.28,0.26l-0.37,0.59l-0.28-0.26
				c-0.03-0.03-0.08-0.03-0.11,0c-0.04,0.04-0.09,0.08-0.15,0.12c-0.03,0.03-0.05,0.08-0.04,0.12l0.1,0.41l-0.58,0.22l-0.1-0.41
				c-0.01-0.04-0.04-0.07-0.08-0.08c0,0,0,0-0.01,0c-0.06,0-0.11,0-0.18,0c-0.04,0-0.08,0.03-0.09,0.07l-0.12,0.41l-0.57-0.24
				l0.12-0.41c0.01-0.05,0-0.1-0.03-0.12c-0.05-0.04-0.1-0.08-0.14-0.13c-0.03-0.03-0.08-0.03-0.11-0.01l-0.3,0.25l-0.34-0.6
				l0.3-0.25c0.03-0.03,0.05-0.08,0.03-0.12c-0.02-0.07-0.04-0.14-0.05-0.2c-0.01-0.05-0.04-0.08-0.08-0.08l-0.36-0.01l0.02-0.73
				l0.36,0.01c0.04,0,0.08-0.03,0.09-0.08c0.02-0.06,0.04-0.13,0.06-0.2c0.02-0.04,0-0.1-0.03-0.13l-0.28-0.26l0.37-0.59l0.28,0.26
				c0.03,0.03,0.08,0.03,0.11,0c0.04-0.04,0.09-0.08,0.15-0.12c0.03-0.03,0.05-0.08,0.04-0.12l-0.1-0.41l0.58-0.22l0.1,0.41
				c0.01,0.05,0.05,0.08,0.09,0.08c0.06,0,0.12,0,0.18,0c0.04,0,0.08-0.03,0.09-0.07l0.12-0.41l0.57,0.24l-0.12,0.41
				c-0.01,0.05,0,0.1,0.03,0.12c0.05,0.04,0.1,0.08,0.14,0.13c0.03,0.03,0.08,0.03,0.11,0.01l0.3-0.25l0.34,0.6l-0.3,0.25
				c-0.03,0.03-0.05,0.08-0.03,0.13c0.02,0.07,0.04,0.14,0.05,0.2c0.01,0.05,0.04,0.08,0.08,0.08l0.36,0.01l-0.02,0.73l-0.36-0.01
				C14.39,67.36,14.35,67.39,14.34,67.44z"/>
			<path class="st0" d="M12.97,65.69c-0.58-0.01-1.07,0.55-1.09,1.26c-0.02,0.7,0.43,1.28,1.01,1.29c0.58,0.01,1.07-0.55,1.09-1.26
				S13.55,65.7,12.97,65.69z M12.91,68.03c-0.48-0.01-0.86-0.49-0.84-1.08c0.02-0.58,0.42-1.05,0.9-1.04s0.86,0.49,0.84,1.08
				C13.79,67.57,13.39,68.03,12.91,68.03z"/>
		</g>
	</g>
	<g>
		<g>
			<path class="st0" d="M10.5,60.7l-1.1,1.68c-0.27-0.15-0.57-0.2-0.87-0.16c-0.91,0.13-1.58,1.13-1.5,2.24
				c0.09,1.1,0.9,1.9,1.81,1.77c0.91-0.13,1.58-1.13,1.5-2.24c-0.02-0.29-0.1-0.57-0.22-0.82l1.14-1.74
				c0.08-0.12,0.12-0.28,0.11-0.43c-0.01-0.16-0.08-0.3-0.18-0.4c-0.1-0.1-0.23-0.14-0.36-0.12C10.7,60.5,10.58,60.58,10.5,60.7z
				 M9.38,62.62l0.04,0.03c0.01,0.01,0.03,0,0.03-0.01l1.17-1.8c0.05-0.08,0.13-0.13,0.21-0.15c0.08-0.01,0.17,0.01,0.23,0.08
				c0.07,0.06,0.11,0.16,0.12,0.26c0.01,0.1-0.02,0.2-0.07,0.28l-1.2,1.84c0,0.01-0.01,0.02-0.01,0.02c0,0.01,0,0.01,0,0.01
				l0.02,0.04c0.13,0.24,0.21,0.51,0.23,0.79c0.08,0.99-0.52,1.89-1.34,2c-0.82,0.12-1.55-0.6-1.62-1.58
				c-0.08-0.99,0.52-1.89,1.34-2C8.84,62.4,9.13,62.46,9.38,62.62z"/>
			<path class="st0" d="M7.58,64.39c0.06,0.74,0.61,1.28,1.22,1.19c0.61-0.09,1.07-0.76,1.01-1.51c-0.02-0.25-0.1-0.49-0.23-0.69
				c-0.08-0.12-0.17-0.22-0.27-0.3c-0.21-0.16-0.47-0.24-0.72-0.2C7.97,62.97,7.52,63.64,7.58,64.39z M8.6,63.09
				c0.22-0.03,0.43,0.03,0.61,0.17c0.09,0.07,0.17,0.15,0.23,0.26c0.11,0.17,0.17,0.37,0.19,0.58c0.05,0.63-0.33,1.2-0.85,1.27
				c-0.52,0.07-0.98-0.38-1.03-1.01C7.7,63.73,8.08,63.16,8.6,63.09z"/>
		</g>
	</g>
	<g>
		<g>
			<path class="st0" d="M17.72,71.78c0.45,0.11,0.89-0.24,0.99-0.78c0.1-0.54-0.18-1.08-0.63-1.19c-0.45-0.11-0.89,0.24-0.99,0.78
				C16.99,71.14,17.27,71.67,17.72,71.78z M17.24,70.64c0.08-0.44,0.44-0.72,0.8-0.63c0.36,0.09,0.59,0.52,0.51,0.96
				c-0.08,0.44-0.44,0.72-0.8,0.63C17.39,71.51,17.16,71.07,17.24,70.64z"/>
			<path class="st0" d="M16.14,71.67c0.23,0.63,0.68,1.1,1.19,1.27c0,0,0,0,0,0L17.57,73c0,0,0,0,0,0c0.54,0.1,1.13-0.14,1.57-0.63
				c0.4-0.45,0.61-1.06,0.57-1.66c-0.05-0.56-0.18-1.13-0.41-1.79c-0.06-0.18-0.13-0.37-0.22-0.6c-0.07-0.18-0.14-0.35-0.2-0.52
				l-0.05-0.13c-0.07-0.18-0.14-0.36-0.21-0.54l-0.01-0.02c0-0.01-0.01-0.02-0.02-0.02l-0.09-0.02c-0.01,0-0.02,0-0.03,0.01
				l-0.02,0.02c-0.15,0.16-0.31,0.33-0.47,0.48l0,0.01c-0.12,0.12-0.24,0.25-0.37,0.38c-0.15,0.16-0.29,0.3-0.41,0.44
				c-0.47,0.53-0.8,1-1.04,1.51l0,0C15.93,70.44,15.93,71.08,16.14,71.67z M16.29,69.99c0.24-0.48,0.56-0.95,1.01-1.46
				c0.12-0.13,0.25-0.27,0.4-0.43c0.12-0.13,0.25-0.25,0.37-0.37l0.01-0.01c0.14-0.14,0.28-0.29,0.43-0.44
				c0.06,0.16,0.13,0.32,0.19,0.47l0.05,0.13c0.07,0.16,0.13,0.34,0.2,0.51c0.09,0.22,0.15,0.41,0.21,0.59
				c0.22,0.65,0.35,1.2,0.4,1.74c0.03,0.54-0.15,1.08-0.52,1.5c-0.4,0.46-0.94,0.67-1.43,0.58l-0.23-0.06
				c-0.47-0.15-0.87-0.58-1.09-1.16C16.09,71.06,16.09,70.47,16.29,69.99z"/>
		</g>
	</g>
	<g>
		<g>
			<polygon class="st0" points="34.1,34.7 35.82,36.88 35.95,36.73 34.23,34.54 			"/>
			<polygon class="st0" points="32.09,37.03 33.8,39.22 33.94,39.06 32.22,36.88 			"/>
			<polygon class="st0" points="33.87,34.96 35.59,37.14 35.73,36.99 34.01,34.8 			"/>
			<polygon class="st0" points="33.65,35.22 35.37,37.4 35.5,37.25 33.79,35.06 			"/>
			<polygon class="st0" points="32.76,36.25 34.47,38.44 34.61,38.28 32.89,36.1 			"/>
			<polygon class="st0" points="32.53,36.51 34.25,38.7 34.38,38.54 32.67,36.36 			"/>
			<polygon class="st0" points="32.31,36.77 34.03,38.96 34.16,38.8 32.44,36.62 			"/>
			<polygon class="st0" points="33.43,35.48 35.14,37.66 35.28,37.51 33.56,35.32 			"/>
			<polygon class="st0" points="33.2,35.74 34.92,37.92 35.05,37.76 33.34,35.58 			"/>
			<polygon class="st0" points="32.98,36 34.7,38.18 34.83,38.02 33.11,35.84 			"/>
			<path class="st0" d="M37.73,37.05l-2.16-2.75l-0.45,0.53l-0.76-0.96l-2.81,3.26l2.16,2.75l0.45-0.53l0.76,0.96L37.73,37.05z
				 M31.8,37.13l2.54-2.95l1.91,2.43l-2.54,2.95L31.8,37.13z M34.48,38.97l0.54,0.68l0.13-0.16l-0.54-0.68l0.09-0.1l0.54,0.68
				l0.13-0.16l-0.54-0.68l0.09-0.1l0.54,0.68l0.13-0.16l-0.54-0.68l0.09-0.1l0.54,0.68l0.13-0.16l-0.54-0.68l0.09-0.1l0.54,0.68
				l0.13-0.16l-0.54-0.68l0.09-0.1l0.54,0.68l0.13-0.16l-0.54-0.68l0.09-0.1l0.54,0.68l0.13-0.16l-0.54-0.68l0.09-0.1l0.54,0.68
				l0.13-0.16L36.18,37l0.09-0.1l0.54,0.68l0.13-0.16l-0.54-0.68l0.09-0.1l0.54,0.68l0.13-0.16l-1.72-2.18l-0.11,0.13l-0.1-0.12
				l0.32-0.37l1.91,2.43l-2.54,2.95l-0.63-0.8L34.48,38.97z"/>
		</g>
	</g>
	<g>
		<g>
			<path class="st0" d="M41.57,51.19l-0.5-4.04l-4.03,0.24l0.63,5.17L41.57,51.19z M41.38,51.04l-3.56,1.26l-0.58-4.72l3.69-0.22
				L41.38,51.04z"/>
			<path class="st0" d="M40.12,47.91c-0.29,0.05-0.93,0.21-1.28,0.73c-0.19,0.28-0.26,0.63-0.21,1.02c0.05,0.4,0.2,0.7,0.45,0.91
				c0.45,0.38,1.11,0.31,1.39,0.26c0.04,0.05,0.09,0.07,0.15,0.06c0.09-0.02,0.15-0.12,0.14-0.23c-0.01-0.11-0.1-0.18-0.18-0.16
				c-0.06,0.01-0.1,0.06-0.12,0.12c-0.27,0.05-0.87,0.1-1.27-0.23c-0.21-0.17-0.33-0.43-0.38-0.77c-0.04-0.34,0.02-0.63,0.17-0.86
				c0.3-0.45,0.89-0.6,1.16-0.65c0.04,0.05,0.09,0.08,0.15,0.07c0.09-0.02,0.15-0.12,0.14-0.23c-0.01-0.11-0.1-0.18-0.18-0.16
				C40.19,47.81,40.14,47.85,40.12,47.91z"/>
		</g>
	</g>
	<g>
		<g>
			<path class="st0" d="M30.46,66.77c-1.26-0.02-2.33,1.21-2.37,2.74c-0.04,1.53,0.95,2.8,2.21,2.82c1.26,0.02,2.33-1.21,2.37-2.74
				C32.72,68.06,31.73,66.79,30.46,66.77z M32.49,69.59c-0.04,1.41-1.02,2.54-2.18,2.51c-1.16-0.02-2.07-1.18-2.03-2.59
				c0.04-1.41,1.02-2.54,2.18-2.51C31.62,67.02,32.53,68.18,32.49,69.59z"/>
			<path class="st0" d="M30.01,68.97L30.01,68.97l-1.05,1.84l-0.18,0.33l0.3-0.15l1.68-0.86l1.04-1.83l0.18-0.33l-0.3,0.15
				L30.01,68.97z M29.3,70.62l0.83-1.45l1.33-0.68l-0.83,1.45L29.3,70.62z"/>
			<path class="st0" d="M30.39,69.31c-0.13,0-0.24,0.12-0.24,0.28c0,0.16,0.1,0.29,0.23,0.29c0.13,0,0.24-0.12,0.24-0.28
				C30.62,69.44,30.52,69.31,30.39,69.31z"/>
		</g>
	</g>
	<g>
		<g>
			<path class="st0" d="M38.74,53.49c-0.01,0-1.2-0.33-1.46,0.75c-0.26,1.08,0.9,1.53,0.91,1.53l0.05,0.02c0.01,0,0.02,0,0.03,0
				c0.01,0.01,0.01,0.01,0.02,0.01l1.39,0.46c0,0,0,0,0,0l0.01,0c0,0,0,0,0,0c0.01,0,1,0.08,1.22-0.83
				c0.22-0.91-0.64-1.43-0.65-1.44c0,0-0.01,0-0.01,0l-1.43-0.47c-0.01,0-0.02,0-0.02,0c-0.01-0.01-0.01-0.02-0.02-0.02L38.74,53.49
				z M38.93,53.81l1.27,0.41c0.04,0.02,0.21,0.14,0.35,0.34c0.19,0.26,0.25,0.53,0.19,0.82c-0.16,0.67-0.89,0.66-1,0.65l-1.24-0.41
				L38.93,53.81z M38.16,55.5c-0.26-0.13-0.85-0.5-0.69-1.19c0.17-0.7,0.84-0.65,1.12-0.6L38.16,55.5z"/>
			<path class="st0" d="M36.21,54.97l0.12-0.51l0.11,0.04c0.03,0.01,0.05-0.01,0.06-0.04l0.07-0.3l0.38,0.12
				c-0.07,0.37-0.03,0.71,0.11,1c0.31,0.65,1.03,0.86,1.06,0.86c0.05,0.01,0.09-0.02,0.11-0.08c0,0,0,0,0,0
				c0.01-0.06-0.02-0.12-0.06-0.13c-0.01,0-0.67-0.19-0.95-0.77c-0.13-0.27-0.15-0.58-0.07-0.94c0.08-0.35,0.24-0.61,0.48-0.77
				c0.49-0.34,1.15-0.12,1.16-0.12c0.05,0.02,0.1-0.02,0.11-0.08c0.01-0.06-0.01-0.12-0.06-0.13c-0.03-0.01-0.74-0.24-1.3,0.14
				c-0.24,0.16-0.41,0.41-0.52,0.75l-0.38-0.13l0.07-0.3c0.01-0.03-0.01-0.06-0.03-0.07l-0.11-0.04l0.12-0.51
				c0.01-0.03-0.01-0.06-0.03-0.07l-0.08-0.03c-0.03-0.01-0.05,0.01-0.06,0.04l-0.48,2c-0.01,0.03,0.01,0.06,0.03,0.07l0.08,0.03
				C36.17,55.02,36.2,55,36.21,54.97z"/>
		</g>
	</g>
	<path class="st0" d="M25.59,71.85l0-0.11c-0.01-0.32-0.05-0.62-0.14-0.91l-0.05-0.17c0-0.01,0-0.01-0.01-0.02l-0.05-0.13
		c0-0.01-0.01-0.01-0.01-0.02l-0.02-0.05c-0.39-0.88-1.12-1.46-1.94-1.54l-0.08-0.01c-0.01-0.01-0.01-0.01-0.02-0.01l-0.11,0
		c-0.01,0-0.02,0-0.02,0.01l-0.08,0c-0.83,0.05-1.59,0.6-2.03,1.47l-0.02,0.05c-0.01,0-0.01,0.01-0.01,0.02l-0.07,0.15
		c0,0,0,0,0,0.01l-0.06,0.16c-0.1,0.28-0.16,0.59-0.19,0.9l-0.01,0.1c0,0.01-0.01,0.02-0.01,0.03l0,0.13c0,0.01,0,0.02,0,0.03l0,0.1
		c0.01,0.32,0.05,0.62,0.14,0.91l0.05,0.16c0,0,0,0,0,0.01l0.06,0.15c0,0.01,0.01,0.02,0.01,0.02l0.02,0.05
		c0.39,0.89,1.12,1.46,1.94,1.54l0.08,0.01c0.01,0,0.01,0.01,0.02,0.01l0.11,0c0.01,0,0.01,0,0.02-0.01l0.09-0.01
		c0.83-0.05,1.59-0.6,2.03-1.47l0.02-0.05c0.01-0.01,0.01-0.01,0.02-0.02l0.06-0.13c0,0,0-0.01,0-0.01l0.06-0.18
		c0.1-0.28,0.17-0.58,0.19-0.9l0.01-0.11c0-0.01,0-0.01,0-0.02l0-0.13C25.59,71.86,25.59,71.86,25.59,71.85z M24.1,73.36l-0.04,0.1
		c-0.21,0.62-0.51,1.03-0.85,1.14l-0.08,0.03l0.04-1.28L24.1,73.36z M23.26,70.45l0.04-1.28l0.08,0.03c0.33,0.12,0.6,0.54,0.78,1.17
		l0.03,0.1L23.26,70.45z M24.32,71.79l-1.1-0.02l0.03-1.08l0.98,0.02l0.01,0.06c0.05,0.28,0.08,0.6,0.08,0.95L24.32,71.79z
		 M24.31,72.04l0,0.08c-0.02,0.35-0.06,0.66-0.13,0.94l-0.01,0.06l-0.98-0.02l0.03-1.08L24.31,72.04z M24.54,71.8l0-0.07
		c0-0.32-0.02-0.63-0.07-0.92l-0.01-0.09l0.73,0.01l0.02,0.04c0.11,0.3,0.16,0.62,0.18,0.96l0,0.08L24.54,71.8z M24.4,73.03
		c0.06-0.28,0.1-0.59,0.12-0.91l0-0.07l0.84,0.01l-0.01,0.08c-0.03,0.34-0.11,0.66-0.23,0.95l-0.02,0.04l-0.73-0.01L24.4,73.03z
		 M25.01,70.36l0.07,0.12l-0.67-0.01l-0.01-0.05c-0.08-0.34-0.19-0.63-0.32-0.86l-0.14-0.24l0.22,0.13
		C24.5,69.65,24.79,69.96,25.01,70.36z M23.93,74.27c0.14-0.23,0.27-0.51,0.37-0.85l0.02-0.05l0.67,0.01l-0.07,0.12
		c-0.24,0.39-0.55,0.69-0.91,0.89l-0.22,0.12L23.93,74.27z M22.97,73.34l-0.04,1.28l-0.08-0.03c-0.33-0.12-0.6-0.54-0.78-1.17
		l-0.03-0.1L22.97,73.34z M21.69,71.99l0,0.07c0,0.31,0.02,0.62,0.07,0.92l0.01,0.09l-0.73-0.01l-0.02-0.04
		c-0.1-0.3-0.16-0.62-0.17-0.96l0-0.08L21.69,71.99z M22.13,70.43l0.04-0.1c0.21-0.62,0.51-1.03,0.85-1.14l0.08-0.03l-0.04,1.28
		L22.13,70.43z M21.91,71.75l0.01-0.08c0.02-0.35,0.07-0.66,0.13-0.94l0.01-0.06l0.98,0.02l-0.03,1.08L21.91,71.75z M21.99,73.02
		c-0.05-0.28-0.08-0.59-0.08-0.95l0-0.08l1.1,0.02l-0.03,1.08L22,73.08L21.99,73.02z M21.82,70.76c-0.06,0.29-0.11,0.6-0.12,0.91
		l0,0.07l-0.84-0.01l0.01-0.08c0.03-0.34,0.11-0.66,0.23-0.95l0.02-0.04l0.73,0.01L21.82,70.76z M22.3,69.52
		c-0.14,0.23-0.27,0.51-0.37,0.85l-0.02,0.05l-0.67-0.01l0.07-0.12c0.24-0.39,0.54-0.69,0.91-0.89l0.23-0.12L22.3,69.52z
		 M21.22,73.43l-0.07-0.12l0.67,0.01l0.01,0.05c0.08,0.34,0.19,0.63,0.32,0.86l0.14,0.24l-0.22-0.13
		C21.73,74.14,21.44,73.83,21.22,73.43z"/>
	<g>
		<g>
			<polygon class="st0" points="5.72,45.16 5.69,45.4 7.49,45.69 7.75,43.72 7.55,43.69 7.33,45.43 			"/>
			<path class="st0" d="M4.95,45.12c-0.21,1.61,0.7,3.09,2.02,3.31c1.32,0.22,2.57-0.91,2.77-2.52c0.21-1.61-0.7-3.09-2.02-3.31
				C6.4,42.38,5.16,43.51,4.95,45.12z M7.69,42.83c1.22,0.2,2.05,1.57,1.86,3.04c-0.19,1.48-1.33,2.52-2.55,2.32
				c-1.22-0.2-2.05-1.57-1.86-3.04C5.34,43.68,6.48,42.63,7.69,42.83z"/>
		</g>
	</g>
	<g>
		<g>
			<path class="st0" d="M27.72,29.55l-1.83,4.5l3.78,2.19l1.83-4.5L27.72,29.55z M26.12,33.95l1.67-4.11l3.46,2.01l-1.67,4.11
				L26.12,33.95z"/>
			<path class="st0" d="M26.55,33.24l3.16,1.83l1.3-3.2l-3.16-1.83L26.55,33.24z M26.79,33.14l1.14-2.81l2.85,1.65l-1.14,2.81
				L26.79,33.14z"/>
			<path class="st0" d="M28.12,31.95c0.18,0.11,0.4,0.01,0.49-0.21c0.09-0.22,0.02-0.49-0.17-0.59c-0.18-0.11-0.4-0.01-0.49,0.21
				C27.87,31.58,27.94,31.85,28.12,31.95z M28.37,31.34c0.09,0.05,0.13,0.19,0.09,0.31c-0.05,0.11-0.16,0.16-0.25,0.11
				c-0.09-0.05-0.13-0.19-0.09-0.31C28.17,31.34,28.28,31.29,28.37,31.34z"/>
			<path class="st0" d="M29.06,32.7l-0.26-0.57l-0.57,0.41l-0.2-0.39l-0.73,0.54l-0.04,0.11l2.56,1.48l-0.07-2.09L29.06,32.7z
				 M27.57,32.74l0.39-0.29l0.19,0.39l0.57-0.4L29,33l0.59-0.44l0.04,1.37L27.57,32.74z"/>
		</g>
	</g>
	<g>
		<g>
			<path class="st1" d="M36.24,62.63l0.56-1.5l0.15-0.41l0.77-2.05l0.15-0.41l0.56-1.5c0.07-0.19,0-0.42-0.16-0.51l-1.42-0.76
				c-0.66,0.66-1.3,1.71-1.78,3c-0.48,1.28-0.71,2.56-0.69,3.58l1.42,0.76C35.98,62.91,36.17,62.83,36.24,62.63z"/>
			<path class="st2" d="M36.87,55.49l-0.07-0.04c-0.66,0.66-1.3,1.71-1.78,3c-0.48,1.28-0.71,2.56-0.69,3.58l0.07,0.04
				c-0.02-1.02,0.21-2.3,0.69-3.58C35.57,57.21,36.21,56.16,36.87,55.49z"/>
		</g>
		<g>
			<polygon class="st3" points="38.32,58.98 37.73,58.67 36.96,60.72 37.55,61.03 			"/>
			<path class="st4" d="M38.32,58.98l-0.77,2.05l-0.59-0.31l-0.15,0.41l0.64,0.34c0.16,0.08,0.35,0,0.42-0.2l0.81-2.17
				c0.07-0.19,0-0.42-0.16-0.51l-0.64-0.34l-0.15,0.41L38.32,58.98z"/>
		</g>
		<path class="st1" d="M36.8,55.46l-1.67-0.89c-0.16-0.08-0.35,0-0.42,0.2l-2.21,5.87c-0.07,0.19,0,0.42,0.16,0.51l1.67,0.89
			c-0.02-1.02,0.21-2.3,0.69-3.58C35.5,57.17,36.14,56.12,36.8,55.46z"/>
		<path class="st5" d="M35.54,56.67c-0.16-0.08-0.23-0.31-0.16-0.51l0.11-0.29c0.07-0.19,0.26-0.28,0.42-0.2l0.65,0.35
			c0.16,0.08,0.23,0.31,0.16,0.51l-0.11,0.29c-0.07,0.19-0.26,0.28-0.42,0.2L35.54,56.67z"/>
		<polygon class="st5" points="36.33,56.72 36.49,56.31 38.26,57.26 38.11,57.67 		"/>
		<path class="st6" d="M35.69,56.56c-0.12-0.06-0.17-0.22-0.12-0.35l0.08-0.2c0.05-0.13,0.18-0.19,0.3-0.13l0.47,0.25
			c0.12,0.06,0.17,0.22,0.12,0.35l-0.08,0.2c-0.05,0.13-0.18,0.19-0.3,0.13L35.69,56.56z"/>
		<g>
			<path class="st5" d="M33.86,61.14c-0.16-0.08-0.23-0.31-0.16-0.51l0.11-0.29c0.07-0.19,0.26-0.28,0.42-0.2l0.65,0.35
				c0.16,0.08,0.23,0.31,0.16,0.51l-0.11,0.29c-0.07,0.19-0.26,0.28-0.42,0.2L33.86,61.14z"/>
			<polygon class="st5" points="34.65,61.19 34.81,60.78 36.58,61.73 36.43,62.14 			"/>
			<path class="st6" d="M34.01,61.03c-0.12-0.06-0.17-0.22-0.12-0.35l0.08-0.2c0.05-0.13,0.18-0.19,0.3-0.13l0.47,0.25
				c0.12,0.06,0.17,0.22,0.12,0.35l-0.08,0.2c-0.05,0.13-0.18,0.19-0.3,0.13L34.01,61.03z"/>
		</g>
	</g>
	<g>
		<g>
			<path class="st3" d="M38.68,44.45l-0.17-0.68c-0.26,0.17-0.92,0.66-1.17,1.58c0.28-0.32,0.63-0.59,1.05-0.78
				C38.4,44.56,38.53,44.51,38.68,44.45z"/>
			<path class="st3" d="M39.35,48.33c-0.43,0.15-0.85,0.19-1.23,0.12c0.63,0.57,1.39,0.5,1.68,0.45l-0.17-0.68
				C39.49,48.27,39.36,48.32,39.35,48.33z"/>
			<path class="st7" d="M40.03,49.07c0.02-0.03,0.02-0.07,0.01-0.11l-0.21-0.82c0.12-0.05,0.22-0.09,0.23-0.09l-0.48-1.88
				l-4.43,1.74l0.24,0.95c0.03,0.11,0.13,0.17,0.22,0.14c0.09-0.04,0.15-0.16,0.12-0.27l-0.08-0.33c0.01,0,0.03,0,0.04-0.01
				c0.05-0.02,0.08-0.09,0.06-0.15l-0.06-0.23l1.18-0.46c0.16,0.35,0.44,0.61,0.79,0.76c0.88,1.19,2.27,0.82,2.29,0.82
				C39.99,49.12,40.02,49.1,40.03,49.07z M38.12,48.44c0.38,0.07,0.8,0.03,1.23-0.12c0.01,0,0.14-0.05,0.28-0.11l0.17,0.68
				C39.51,48.95,38.75,49.01,38.12,48.44z"/>
			<path class="st8" d="M39.12,44.28c-0.01,0.01-0.11,0.04-0.23,0.09l-0.21-0.82c-0.01-0.04-0.03-0.06-0.06-0.08
				c-0.03-0.02-0.06-0.02-0.09,0c-0.02,0.01-1.32,0.71-1.5,2.31c-0.22,0.38-0.32,0.79-0.3,1.19l-1.18,0.46L35.5,47.2
				c-0.02-0.06-0.07-0.1-0.12-0.08c-0.01,0.01-0.02,0.01-0.03,0.02l-0.08-0.33c-0.03-0.11-0.13-0.17-0.22-0.14
				c-0.09,0.04-0.15,0.16-0.12,0.27l0.24,0.95l4.43-1.74L39.12,44.28z M38.51,43.77l0.17,0.68c-0.15,0.06-0.28,0.11-0.3,0.12
				c-0.41,0.18-0.77,0.46-1.05,0.78C37.59,44.43,38.24,43.94,38.51,43.77z"/>
		</g>
		<polygon class="st9" points="34.68,49.78 33.91,46.72 34.88,46.34 35.65,49.4 		"/>
		<polygon class="st10" points="34.36,50.06 33.52,46.71 33.87,46.58 34.71,49.92 		"/>
		<path class="st7" d="M35.01,48.96c-0.16,0.06-0.32-0.04-0.37-0.23l-0.29-1.13c-0.05-0.19,0.04-0.39,0.2-0.45l0,0
			c0.16-0.06,0.32,0.04,0.37,0.23l0.29,1.13C35.25,48.7,35.16,48.9,35.01,48.96L35.01,48.96z"/>
	</g>
	<g>
		<path class="st11" d="M34.41,53.09c-0.56-0.01-1.29-0.99-1.29-0.99s0.78-0.95,1.35-0.94s0.7,0.45,0.69,0.98
			C35.14,52.67,34.97,53.1,34.41,53.09z"/>
		<path class="st12" d="M34.53,52.79c-0.39-0.01-0.89-0.68-0.89-0.68s0.54-0.66,0.93-0.65c0.39,0.01,0.49,0.31,0.48,0.68
			C35.04,52.5,34.92,52.8,34.53,52.79z"/>
		<path class="st13" d="M34.73,52.51c-0.22,0-0.52-0.4-0.52-0.4s0.31-0.38,0.54-0.38c0.22,0,0.28,0.18,0.28,0.39
			C35.02,52.34,34.95,52.52,34.73,52.51z"/>
		<g>
			<g>
				<path class="st14" d="M36.47,51.37c0,0-0.54-1.34-1.78-1.36c0,0-0.14,0.08,0.02,0.22c0.16,0.14,0.61,0.26,0.58,1.11L36.47,51.37
					z"/>
				<path class="st15" d="M36.43,52.94c0,0-0.61,1.32-1.86,1.3c0,0-0.13-0.09,0.03-0.22c0.17-0.13,0.62-0.24,0.65-1.09L36.43,52.94z
					"/>
			</g>
			<g>
				<path class="st16" d="M37.62,53.65c0.51,0.01,0.99-0.09,1.42-0.24l0.04-1.22l-0.43-0.01c-0.01,0.45-0.32,0.81-0.69,0.8
					c-0.37-0.01-0.66-0.38-0.65-0.83l-2.16-0.04l-0.02,0.8C35.64,53.34,36.56,53.63,37.62,53.65z"/>
				<path class="st17" d="M38,51.36c0.37,0.01,0.66,0.38,0.65,0.83l0.43,0.01l0.04-1.22c-0.42-0.16-0.89-0.28-1.4-0.29
					c-1.06-0.02-1.99,0.24-2.53,0.64l-0.02,0.8l2.16,0.04C37.32,51.72,37.63,51.36,38,51.36z"/>
				<path class="st18" d="M35.17,51.34c0-0.02-0.01-0.04-0.03-0.04l-0.14,0c-0.02,0-0.03,0.02-0.03,0.04l-0.02,0.79l0.2,0
					L35.17,51.34z"/>
				<path class="st19" d="M35.12,52.91l0.02-0.78l-0.2,0l-0.02,0.78c0,0.02,0.01,0.04,0.03,0.04l0.14,0
					C35.11,52.95,35.12,52.93,35.12,52.91z"/>
				<path class="st19" d="M37.96,52.74c-0.25,0-0.45-0.26-0.44-0.57l-0.21,0c-0.01,0.45,0.28,0.82,0.65,0.83
					c0.37,0.01,0.68-0.35,0.69-0.8l-0.21,0C38.43,52.5,38.21,52.74,37.96,52.74z"/>
				<path class="st18" d="M38,51.36c-0.37-0.01-0.68,0.35-0.69,0.8l0.21,0c0.01-0.31,0.22-0.55,0.48-0.55
					c0.25,0,0.45,0.26,0.44,0.57l0.21,0C38.66,51.74,38.37,51.37,38,51.36z"/>
				<path class="st20" d="M37.96,52.74c0.25,0,0.47-0.24,0.48-0.55l-0.92-0.02C37.51,52.48,37.71,52.73,37.96,52.74z"/>
				<path class="st21" d="M37.99,51.62c-0.25,0-0.47,0.24-0.48,0.55l0.92,0.02C38.44,51.88,38.25,51.63,37.99,51.62z"/>
			</g>
		</g>
		<g>
			<path class="st15" d="M40.65,52.23l-1.57-0.03l-0.04,1.22C39.99,53.08,40.64,52.49,40.65,52.23z"/>
			<path class="st14" d="M40.65,52.23c0.01-0.27-0.61-0.88-1.54-1.24l-0.04,1.22L40.65,52.23L40.65,52.23z"/>
			<path class="st15" d="M36.11,52.2c0,0,0-0.01,0-0.01l0,0l0-0.04l-1.54-0.03l0,0.04l0,0c0,0.02,0.01,0.04,0.03,0.04l0.05,0l0.07,0
				l1.23,0.14C36.08,52.35,36.1,52.22,36.11,52.2z"/>
			<path class="st14" d="M36.11,52.1L36.11,52.1c0-0.01,0-0.01,0-0.01c0-0.01,0-0.02-0.01-0.02c-0.01-0.05-0.04-0.13-0.14-0.13
				l-1.24,0.1l-0.06,0l-0.05,0c-0.01,0-0.03,0.01-0.03,0.03c0,0.01,0,0.01,0,0.02l0,0l0,0.04l1.54,0.03L36.11,52.1z"/>
		</g>
	</g>
	<path class="st17" d="M29,62.97c0,0.02,0.38,3.11,0.38,3.11l-1.06,0.34l-0.05-3.29c0,0,0-0.03,0-0.05
		c-0.02-0.25,0.13-0.47,0.33-0.5C28.79,62.55,28.97,62.73,29,62.97z"/>
	<g>
		<polygon class="st16" points="31.06,66.59 31.06,66.59 31,66.56 30.81,65.53 33.57,63.11 34.05,65.73 		"/>
		<polygon class="st17" points="34.53,68.34 31.21,67.67 31.02,66.64 31.06,66.59 34.05,65.73 		"/>
	</g>
	<path class="st22" d="M31.23,67.6c0.03,0.14-0.03,0.29-0.14,0.32l-2.68,0.77c-0.1,0.03-0.21-0.06-0.23-0.21l-0.2-1.08l3.05-0.88
		L31.23,67.6z"/>
	<path class="st22" d="M27.99,67.39l-0.2-1.08c-0.03-0.14,0.03-0.29,0.14-0.32l2.68-0.77c0.1-0.03,0.21,0.06,0.23,0.21l0.2,1.08
		L27.99,67.39z"/>
	<path class="st17" d="M30.17,67.64c-0.02-0.13-0.12-0.22-0.21-0.19l-0.74,0.21c-0.09,0.03-0.15,0.16-0.12,0.29l0,0
		c0.02,0.13,0.12,0.22,0.21,0.19l0.74-0.21C30.14,67.91,30.2,67.78,30.17,67.64L30.17,67.64z"/>
	<path class="st22" d="M33.78,63.13c-0.02-0.11-0.1-0.18-0.18-0.16l0,0c-0.08,0.02-0.12,0.13-0.1,0.24l0.94,5.07
		c0.02,0.11,0.1,0.18,0.18,0.16l0,0c0.08-0.02,0.12-0.13,0.1-0.24L33.78,63.13z"/>
	<g>
		<g>
			<path class="st16" d="M27.32,67.59c-0.08-0.45,0.1-0.9,0.42-1.02l0.31,1.7C27.73,68.34,27.4,68.04,27.32,67.59z"/>
		</g>
	</g>
	<g>
		<path class="st16" d="M35.35,67.1c0,0.07-0.02,0.12-0.05,0.11l-0.54-0.19c-0.03-0.01-0.06-0.08-0.07-0.15
			c0-0.06,0.01-0.1,0.04-0.11c0.01,0,0.01,0,0.02,0l0.54,0.19C35.31,66.96,35.34,67.03,35.35,67.1z"/>
		<path class="st16" d="M34.73,63.75c-0.02-0.07-0.06-0.1-0.09-0.07l-0.42,0.47c-0.03,0.03-0.03,0.11-0.01,0.17
			c0.02,0.06,0.05,0.09,0.07,0.08c0.01,0,0.01,0,0.01-0.01l0.42-0.47C34.75,63.89,34.75,63.81,34.73,63.75z"/>
		<path class="st16" d="M35.09,65.54l-0.53,0.15c-0.03,0.01-0.07-0.04-0.08-0.11c-0.01-0.07,0-0.14,0.03-0.15l0.53-0.15
			c0.03-0.01,0.07,0.04,0.08,0.11C35.14,65.47,35.12,65.54,35.09,65.54z"/>
	</g>
	<g>
		<g>
			<g>
				<path class="st10" d="M15.34,60.93c0.05-0.03,0.1-0.01,0.13,0.04l0.25,0.54c0.02,0.05,0.01,0.12-0.04,0.16l-0.17,0.11
					c-0.05,0.03-0.1,0.01-0.13-0.04l-0.25-0.54c-0.02-0.05-0.01-0.12,0.04-0.16L15.34,60.93z"/>
				<path class="st10" d="M12.91,55.56c0.05-0.03,0.1-0.01,0.13,0.04l0.25,0.54c0.02,0.05,0.01,0.12-0.04,0.16l-0.17,0.11
					c-0.05,0.03-0.1,0.01-0.13-0.04l-0.25-0.54c-0.02-0.05-0.01-0.12,0.04-0.16L12.91,55.56z"/>
			</g>
			<g>
				<g>
					<polygon class="st10" points="11.08,62.32 11.38,62.98 10.48,63.73 10.24,63.2 					"/>
					<polygon class="st10" points="10.04,60 9.74,59.34 8.74,59.89 8.98,60.41 					"/>
				</g>
			</g>
			<g>
				<path class="st22" d="M10.31,63.56l-1.54-3.4c-0.13-0.3-0.02-0.69,0.25-0.87l0.01-0.01c0.01-0.02,0.02-0.04,0.04-0.06
					c0.07-0.11,0.06-0.18,0.02-0.28c-0.29-0.64-0.58-1.29-0.88-1.93c-0.02-0.05-0.05-0.09-0.08-0.14c-0.5,0.33-0.79,0.79-0.83,1.48
					c-0.04,0.75,0.13,1.43,0.41,2.06c0.63,1.44,1.27,2.87,1.93,4.28c0.29,0.61,0.7,1.11,1.22,1.45c0.49,0.32,0.94,0.19,1.4-0.16
					c-0.34-0.75-0.67-1.48-1-2.22c-0.08,0.01-0.16,0.02-0.23,0.02C10.75,63.94,10.44,63.85,10.31,63.56z"/>
				<path class="st22" d="M8.25,56.8c0.33,0.73,0.66,1.46,0.99,2.2c0.45-0.23,0.46-0.29,0.24-0.78c-0.2-0.44-0.39-0.87-0.59-1.31
					C8.72,56.52,8.54,56.49,8.25,56.8z"/>
				<path class="st22" d="M11.37,63.69c0.33,0.73,0.66,1.47,0.99,2.2c0.4-0.2,0.44-0.34,0.25-0.76c-0.19-0.43-0.38-0.85-0.58-1.27
					C11.86,63.48,11.69,63.43,11.37,63.69z"/>
			</g>
			<path class="st23" d="M10.97,60.88c0.37,0.83,1.24,1.12,1.93,0.65c0.69-0.47,0.95-1.52,0.57-2.35c-0.37-0.83-1.24-1.12-1.93-0.65
				C10.85,59,10.6,60.05,10.97,60.88z M13.04,59.47c0.25,0.55,0.08,1.25-0.38,1.56c-0.46,0.31-1.03,0.12-1.28-0.43
				c-0.25-0.55-0.08-1.25,0.38-1.56C12.22,58.73,12.79,58.92,13.04,59.47z"/>
			<path class="st22" d="M9.8,58.59l-0.3,0.89l0.69,1.53l0.28,0.62l0.69,1.53l0.77,0.15l2.58-0.56l1.2-0.82l-2.96-6.56l-1.2,0.82
				L9.8,58.59z M13.47,59.18c0.37,0.83,0.12,1.88-0.57,2.35c-0.69,0.47-1.55,0.18-1.93-0.65c-0.37-0.83-0.12-1.88,0.57-2.35
				C12.23,58.06,13.09,58.35,13.47,59.18z"/>
			<path class="st10" d="M11.39,60.59c0.25,0.55,0.82,0.74,1.28,0.43c0.46-0.31,0.63-1.01,0.38-1.56c-0.25-0.55-0.82-0.74-1.28-0.43
				C11.31,59.35,11.14,60.05,11.39,60.59z"/>
			<g>
				<g>
					<path class="st10" d="M11.09,60.52c0.1-0.07,0.22-0.03,0.27,0.09c0.05,0.11,0.02,0.26-0.08,0.33c-0.1,0.07-0.22,0.02-0.27-0.09
						C10.96,60.74,11,60.59,11.09,60.52z"/>
					<path class="st10" d="M13.16,59.12c0.1-0.07,0.22-0.02,0.27,0.09c0.05,0.11,0.02,0.26-0.08,0.33c-0.1,0.07-0.22,0.02-0.27-0.09
						C13.03,59.33,13.06,59.18,13.16,59.12z"/>
				</g>
			</g>
			<g>
				<g>
					<path class="st10" d="M11.83,58.67c0.05,0.11,0.02,0.26-0.08,0.33c-0.1,0.07-0.22,0.02-0.27-0.09
						c-0.05-0.11-0.02-0.26,0.08-0.33C11.66,58.52,11.78,58.56,11.83,58.67z"/>
					<path class="st10" d="M12.95,61.15c0.05,0.11,0.02,0.26-0.08,0.33c-0.1,0.07-0.22,0.03-0.27-0.09
						c-0.05-0.11-0.02-0.26,0.08-0.33C12.78,60.99,12.9,61.03,12.95,61.15z"/>
				</g>
			</g>
			<g>
				<g>
					<path class="st10" d="M11.15,59.42c0.1,0.03,0.16,0.17,0.13,0.29c-0.03,0.13-0.14,0.2-0.24,0.17c-0.1-0.04-0.16-0.17-0.13-0.29
						C10.94,59.46,11.05,59.39,11.15,59.42z"/>
					<path class="st10" d="M13.4,60.18c0.1,0.03,0.16,0.17,0.13,0.29c-0.03,0.13-0.14,0.2-0.24,0.17c-0.1-0.03-0.16-0.17-0.13-0.29
						C13.19,60.22,13.3,60.14,13.4,60.18z"/>
				</g>
			</g>
			<g>
				<g>
					<path class="st10" d="M12.74,58.72c-0.03,0.13-0.14,0.2-0.24,0.17c-0.1-0.03-0.16-0.17-0.13-0.29c0.03-0.13,0.14-0.2,0.24-0.17
						C12.71,58.46,12.77,58.59,12.74,58.72z"/>
					<path class="st10" d="M12.07,61.46c-0.03,0.13-0.14,0.2-0.24,0.17c-0.1-0.03-0.16-0.17-0.13-0.29c0.03-0.13,0.14-0.2,0.24-0.17
						C12.05,61.21,12.1,61.34,12.07,61.46z"/>
				</g>
			</g>
			<g>
				<g>
					<path class="st10" d="M11.42,58.98c0.09,0.08,0.1,0.23,0.03,0.33c-0.07,0.11-0.19,0.13-0.28,0.05
						c-0.09-0.08-0.1-0.23-0.03-0.33C11.21,58.92,11.34,58.9,11.42,58.98z"/>
					<path class="st10" d="M13.26,60.7c0.09,0.08,0.1,0.23,0.03,0.33c-0.07,0.11-0.19,0.13-0.28,0.05c-0.09-0.08-0.1-0.23-0.03-0.33
						C13.05,60.64,13.18,60.62,13.26,60.7z"/>
				</g>
			</g>
			<g>
				<g>
					<path class="st10" d="M13.1,59.04c-0.07,0.11-0.19,0.13-0.28,0.05c-0.09-0.08-0.1-0.23-0.03-0.33
						c0.07-0.11,0.19-0.13,0.28-0.05C13.15,58.78,13.17,58.93,13.1,59.04z"/>
					<path class="st10" d="M11.65,61.31c-0.07,0.11-0.19,0.13-0.28,0.05c-0.09-0.08-0.1-0.23-0.03-0.33
						c0.07-0.11,0.19-0.13,0.28-0.05C11.7,61.05,11.71,61.2,11.65,61.31z"/>
				</g>
			</g>
			<g>
				<g>
					<path class="st10" d="M12.15,61.47c-0.01-0.13,0.07-0.25,0.18-0.27c0.11-0.02,0.21,0.08,0.22,0.21
						c0.01,0.13-0.07,0.25-0.18,0.27C12.25,61.69,12.16,61.6,12.15,61.47z"/>
					<path class="st10" d="M11.9,58.65c-0.01-0.13,0.07-0.25,0.18-0.27c0.11-0.02,0.21,0.08,0.22,0.21
						c0.01,0.13-0.07,0.25-0.18,0.27C12.01,58.87,11.91,58.78,11.9,58.65z"/>
				</g>
			</g>
			<g>
				<g>
					<path class="st10" d="M11.03,59.97c0.11-0.02,0.21,0.08,0.22,0.21c0.01,0.13-0.07,0.25-0.18,0.27
						c-0.11,0.02-0.21-0.08-0.22-0.21C10.85,60.11,10.92,59.99,11.03,59.97z"/>
					<path class="st10" d="M13.37,59.61c0.11-0.02,0.21,0.08,0.22,0.21c0.01,0.13-0.07,0.25-0.18,0.27
						c-0.11,0.02-0.21-0.08-0.22-0.21C13.18,59.75,13.26,59.63,13.37,59.61z"/>
				</g>
			</g>
		</g>
		<path class="st23" d="M11.87,59.26c0.35-0.24,0.79-0.09,0.97,0.33c0.19,0.42,0.06,0.95-0.29,1.19c-0.35,0.24-0.79,0.09-0.97-0.33
			C11.39,60.03,11.52,59.5,11.87,59.26z"/>
	</g>
	<g>
		<g>
			<path class="st24" d="M18.94,66.9c-0.02,0.05-0.05,0.1-0.07,0.14c-0.01-0.08-0.03-0.15-0.05-0.23c-0.04-0.16-0.1-0.31-0.17-0.46
				c0.53-1.24,0.43-2.01,0.32-2.38c0.2,0.52,0.55,1.72-0.01,2.91C18.94,66.89,18.94,66.89,18.94,66.9z"/>
			<path class="st25" d="M15.87,68.17c0,0,1.7,0.45,2.65-1.55c0,0,0-0.01,0.01-0.01c0.04-0.09,0.08-0.17,0.11-0.25
				c0.07,0.15,0.13,0.3,0.17,0.46c0.02,0.07,0.04,0.15,0.05,0.23C18.08,68.47,16.32,68.39,15.87,68.17z"/>
			<path class="st26" d="M18.87,67.04c0.01,0.06,0.02,0.12,0.02,0.19c-0.71,1.22-1.9,1.53-3.07,1.12l-1.07,2.29l0.16,0.11
				c0.13,0.09,0.18,0.29,0.1,0.45c-0.08,0.16-0.24,0.22-0.38,0.13l-0.7-0.47l-0.7-0.47c-0.13-0.09-0.18-0.29-0.1-0.45
				c0.08-0.16,0.24-0.22,0.38-0.13l0.16,0.11l1.07-2.29c-0.94-1.02-1.34-2.47-0.74-3.89c0,0.03,0.01,0.08,0.03,0.13
				c-0.78,2.02,0.85,3.82,0.85,3.82l-1.09,2.32c0,0-0.43-0.31-0.52-0.12c0,0-0.16,0.28-0.01,0.38c0.15,0.1,0.8,0.53,0.8,0.53
				l1.35-2.88c0,0-0.99-1.6-0.53-3.21c0.03,0.01,0.05,0.02,0.08,0.02c0.3,0.08,0.61,0.09,0.9,0.08c0.6-0.01,1.16-0.11,1.56,0.13
				c0.41,0.25,0.92,0.78,1.23,1.4c-0.03,0.08-0.07,0.16-0.11,0.25c0,0,0,0.01-0.01,0.01c-0.95,2-2.65,1.55-2.65,1.55
				C16.32,68.39,18.08,68.47,18.87,67.04z"/>
			<path class="st25" d="M15.41,67.93l-1.35,2.88c0,0-0.64-0.43-0.8-0.53c-0.15-0.1,0.01-0.38,0.01-0.38
				c0.09-0.19,0.52,0.12,0.52,0.12l1.09-2.32c0,0-1.63-1.8-0.85-3.82c0.07,0.25,0.26,0.67,0.85,0.86
				C14.42,66.33,15.41,67.93,15.41,67.93z"/>
		</g>
		<g>
			<path class="st27" d="M18.96,63.97c-0.07-0.17-0.12-0.27-0.12-0.27S18.9,63.79,18.96,63.97z"/>
		</g>
		<g>
			<path class="st25" d="M18.01,62.6c0,0-0.01,0-0.02,0c-0.02-0.01-0.04-0.03-0.06-0.04C17.98,62.58,18.01,62.6,18.01,62.6z"/>
			<g>
				<path class="st28" d="M19.03,66.96c-0.04,0.09-0.09,0.18-0.14,0.27c0-0.06-0.01-0.12-0.02-0.19c0.03-0.05,0.05-0.09,0.07-0.14
					c0,0,0-0.01,0.01-0.01c0.56-1.2,0.22-2.4,0.01-2.91c-0.06-0.18-0.12-0.27-0.12-0.27s0.05,0.1,0.12,0.27
					c0.12,0.37,0.21,1.14-0.32,2.38c-0.3-0.62-0.82-1.15-1.23-1.4c-0.4-0.24-0.95-0.14-1.56-0.13c-0.29,0.01-0.6,0-0.9-0.08
					c-0.03-0.01-0.05-0.01-0.08-0.02c0.04-0.15,0.1-0.29,0.16-0.44c0,0,0-0.01,0-0.01c0.77-1.64,2.71-1.68,2.94-1.67
					c1.26,0.96,1.81,2.72,1.05,4.33C19.04,66.94,19.03,66.95,19.03,66.96z"/>
				<path class="st29" d="M14.12,63.66C14.12,63.66,14.12,63.66,14.12,63.66c-0.03,0.07-0.06,0.14-0.09,0.21
					c-0.01-0.05-0.02-0.1-0.03-0.13c0.02-0.04,0.03-0.08,0.05-0.12c0-0.01,0.01-0.02,0.01-0.03c0.79-1.69,2.38-2.03,3.76-1.11
					c0.01,0.01,0.02,0.01,0.02,0.02c0.03,0.02,0.06,0.04,0.08,0.06C17.48,62.32,15.22,61.3,14.12,63.66z"/>
			</g>
			<path class="st24" d="M15.05,64.27C15.05,64.28,15.05,64.28,15.05,64.27c-0.07,0.16-0.13,0.3-0.17,0.45
				c-0.59-0.18-0.79-0.61-0.85-0.86c0.03-0.07,0.06-0.14,0.09-0.21c0,0,0,0,0,0c1.11-2.36,3.36-1.34,3.81-1.1
				c0.02,0.01,0.04,0.03,0.06,0.04C17.76,62.6,15.82,62.63,15.05,64.27z"/>
		</g>
		<path class="st30" d="M17.45,63.37c0.1-0.21,0.04-0.47-0.13-0.58c-0.17-0.11-0.38-0.04-0.48,0.17c-0.1,0.21-0.04,0.47,0.13,0.58
			C17.13,63.66,17.35,63.58,17.45,63.37z"/>
		<path class="st30" d="M15.97,63.68c-0.09,0.19-0.29,0.26-0.45,0.16c-0.16-0.11-0.21-0.35-0.12-0.54c0.09-0.19,0.29-0.26,0.45-0.16
			C16.01,63.24,16.06,63.49,15.97,63.68z M15.88,63.61c0.06-0.13,0.02-0.29-0.08-0.36c-0.1-0.07-0.24-0.02-0.3,0.1
			c-0.06,0.13-0.02,0.29,0.08,0.36C15.68,63.79,15.82,63.74,15.88,63.61z"/>
		<g>
			<path class="st24" d="M14.01,69.73c0,0.01-0.01,0.01-0.01,0.02c-0.04-0.11-0.04-0.24,0.01-0.35c0.09-0.19,0.28-0.25,0.43-0.15
				c0.07,0.05,0.12,0.12,0.14,0.21C14.37,69.37,14.13,69.47,14.01,69.73z"/>
			<path class="st28" d="M14.56,69.77c-0.09,0.19-0.28,0.25-0.43,0.15c-0.06-0.04-0.1-0.1-0.13-0.17c0-0.01,0.01-0.01,0.01-0.02
				c0.12-0.25,0.36-0.36,0.58-0.27C14.61,69.55,14.61,69.67,14.56,69.77z"/>
		</g>
		<g>
			<path class="st24" d="M15.41,66.84c-0.02,0.03-0.03,0.07-0.04,0.11c-0.06-0.16-0.06-0.35,0.02-0.51
				c0.13-0.27,0.41-0.37,0.63-0.22c0.1,0.07,0.17,0.18,0.21,0.31C15.93,66.36,15.57,66.49,15.41,66.84z"/>
			<path class="st28" d="M16.18,66.97c-0.13,0.27-0.41,0.37-0.63,0.22c-0.09-0.06-0.15-0.14-0.19-0.24
				c0.01-0.04,0.03-0.07,0.04-0.11c0.16-0.35,0.52-0.49,0.81-0.32C16.25,66.67,16.24,66.83,16.18,66.97z"/>
		</g>
	</g>
	<g>
		<g>
			<path class="st31" d="M27.05,70.22l-7.74-0.14l0.16-5.73l3.57,0.06c0.06-0.09,0.17-0.15,0.3-0.15c0.13,0,0.23,0.06,0.29,0.16
				l3.57,0.06L27.05,70.22z"/>
			<polygon class="st32" points="26.87,70.12 19.49,69.98 19.64,64.57 27.03,64.7 			"/>
			<path class="st33" d="M23.99,64.97c0,0,0.11-0.65-0.04-1.09l0.32,0.29l0.23-0.29c0,0,0.13,0.5,0,1.14L23.99,64.97z"/>
			<path class="st34" d="M19.48,70.09l0.16-5.53c0,0,1.75,0.86,3.67,0.08l-0.16,5.52C23.15,70.16,21.06,70.38,19.48,70.09z"/>
			<path class="st35" d="M19.6,70.19l0.16-5.53c0,0,1.97,0.85,3.55-0.01l-0.15,5.52C23.16,70.16,20.25,70.56,19.6,70.19z"/>
			<path class="st36" d="M19.91,70.88l0.17-5.5c0,0,2.19,0.25,3.23-0.74l-0.16,5.52C23.15,70.16,21.43,71.2,19.91,70.88z"/>
			<path class="st37" d="M20.59,71.35l0.16-5.58c0,0,1.43,0.27,2.57-1.13l-0.15,5.53C23.17,70.17,22.22,71.53,20.59,71.35z"/>
		</g>
		<g>
			<path class="st34" d="M26.83,70.2l0.16-5.53c0,0-1.82,0.82-3.67-0.03l-0.14,5.49C23.17,70.13,25.23,70.43,26.83,70.2z"/>
			<path class="st35" d="M26.71,70.29l0.16-5.53c0,0-2.04,0.8-3.56-0.11l-0.15,5.49C23.16,70.13,26.05,70.64,26.71,70.29z"/>
			<path class="st36" d="M26.35,70.97l0.15-5.5c0,0-2.2,0.19-3.18-0.83l-0.15,5.52C23.16,70.15,24.82,71.24,26.35,70.97z"/>
		</g>
	</g>
	<g>
		<g>
			<g>
				<polygon class="st38" points="35.87,39.48 31.19,35.58 30.54,36.72 35.22,40.61 				"/>
				<polygon class="st17" points="30.54,36.72 28.71,39.9 33.39,43.79 35.22,40.61 				"/>
			</g>
			<g>
				<g>
					<polygon class="st39" points="30.67,38.13 30.24,37.76 30.54,37.23 30.98,37.59 					"/>
					<polygon class="st39" points="34.46,41.28 34.02,40.92 34.33,40.38 34.77,40.74 					"/>
					<polygon class="st39" points="31.43,38.76 30.99,38.39 31.3,37.86 31.74,38.22 					"/>
					<polygon class="st39" points="32.19,39.39 31.75,39.02 32.06,38.49 32.49,38.85 					"/>
					<polygon class="st39" points="32.94,40.02 32.51,39.66 32.82,39.12 33.25,39.48 					"/>
					<polygon class="st38" points="33.7,40.65 33.27,40.29 33.57,39.75 34.01,40.11 					"/>
				</g>
			</g>
			<g>
				<g>
					<polygon class="st39" points="30.11,39.1 29.68,38.74 29.98,38.2 30.42,38.56 					"/>
					<polygon class="st39" points="33.9,42.25 33.46,41.89 33.77,41.36 34.21,41.72 					"/>
					<polygon class="st39" points="30.87,39.73 30.43,39.37 30.74,38.83 31.18,39.19 					"/>
					<polygon class="st39" points="31.63,40.36 31.19,40 31.5,39.46 31.93,39.83 					"/>
					<polygon class="st38" points="32.38,40.99 31.95,40.63 32.26,40.09 32.69,40.46 					"/>
					<polygon class="st38" points="33.14,41.62 32.71,41.26 33.01,40.72 33.45,41.09 					"/>
				</g>
			</g>
			<g>
				<g>
					<polygon class="st39" points="29.57,40.05 29.13,39.69 29.44,39.15 29.87,39.51 					"/>
					<polygon class="st39" points="33.35,43.2 32.92,42.84 33.22,42.31 33.66,42.67 					"/>
					<polygon class="st39" points="30.32,40.68 29.89,40.32 30.2,39.78 30.63,40.15 					"/>
					<polygon class="st39" points="31.08,41.31 30.65,40.95 30.95,40.41 31.39,40.78 					"/>
					<polygon class="st39" points="31.84,41.94 31.4,41.58 31.71,41.04 32.14,41.41 					"/>
					<polygon class="st39" points="32.59,42.57 32.16,42.21 32.47,41.67 32.9,42.04 					"/>
				</g>
			</g>
		</g>
		<g>
			<g>
				<path class="st40" d="M31.97,37.03c-0.1,0.17-0.28,0.21-0.42,0.1c-0.14-0.11-0.17-0.34-0.07-0.51c0.1-0.17,0.28-0.21,0.42-0.1
					C32.03,36.64,32.06,36.86,31.97,37.03z"/>
				<path class="st39" d="M31.93,36.95c-0.05,0.09-0.15,0.11-0.22,0.05l-0.13-0.11c-0.07-0.06-0.09-0.18-0.04-0.27l0.47-0.82
					c0.05-0.09,0.15-0.11,0.22-0.05l0.13,0.11c0.07,0.06,0.09,0.18,0.04,0.27L31.93,36.95z"/>
			</g>
			<g>
				<path class="st40" d="M34.96,39.53c-0.1,0.17-0.28,0.21-0.42,0.1c-0.14-0.11-0.17-0.34-0.07-0.51c0.1-0.17,0.28-0.21,0.42-0.1
					C35.03,39.13,35.06,39.36,34.96,39.53z"/>
				<path class="st39" d="M34.93,39.45c-0.05,0.09-0.15,0.11-0.22,0.05l-0.13-0.11c-0.07-0.06-0.09-0.18-0.04-0.27l0.47-0.82
					c0.05-0.09,0.15-0.11,0.22-0.05l0.13,0.11c0.07,0.06,0.09,0.18,0.04,0.27L34.93,39.45z"/>
			</g>
		</g>
	</g>
	<g>
		<g>
			<g>
				<g>
					<polygon class="st41" points="12.25,43.1 12.07,43.5 11.42,43.08 11.6,42.67 					"/>
					<g>
						<path class="st22" d="M9.12,44c0.93,0.61,2.11,0.17,2.63-0.97c0.52-1.14,0.18-2.56-0.75-3.17c-0.93-0.61-2.11-0.17-2.63,0.97
							C7.86,41.98,8.19,43.4,9.12,44z M8.67,41.02c0.43-0.95,1.4-1.31,2.18-0.8c0.77,0.5,1.05,1.68,0.62,2.62
							c-0.43,0.95-1.4,1.31-2.18,0.8C8.51,43.15,8.24,41.97,8.67,41.02z"/>
						<path class="st42" d="M10.84,40.22c0.77,0.5,1.05,1.68,0.62,2.62l-2.8-1.82C9.1,40.08,10.07,39.72,10.84,40.22z"/>
						<path class="st43" d="M8.67,41.02l2.8,1.82c-0.43,0.95-1.4,1.31-2.18,0.8C8.51,43.15,8.24,41.97,8.67,41.02z"/>
					</g>
				</g>
				<path class="st17" d="M11.23,41.48c0.05-0.02,0.09-0.08,0.08-0.15c0-0.02-0.08-0.59-0.51-0.87c-0.6-0.39-1.14-0.06-1.17-0.04
					c-0.05,0.03-0.07,0.11-0.05,0.17c0.03,0.06,0.09,0.09,0.14,0.05c0.02-0.01,0.47-0.28,0.97,0.04c0.34,0.22,0.4,0.68,0.41,0.69
					C11.11,41.45,11.17,41.5,11.23,41.48C11.23,41.48,11.23,41.48,11.23,41.48z"/>
				<path class="st44" d="M8.46,42.39c-0.19-1.08,0.38-2.16,1.27-2.42c0.89-0.26,1.77,0.41,1.97,1.49c0.19,1.08-0.38,2.16-1.27,2.42
					C9.53,44.13,8.65,43.46,8.46,42.39z M8.53,42.36c0.18,1.03,1.02,1.66,1.87,1.42c0.85-0.24,1.39-1.28,1.21-2.3
					c-0.18-1.03-1.02-1.66-1.87-1.42C8.89,40.31,8.35,41.34,8.53,42.36z"/>
			</g>
		</g>
		<g>
			<path class="st45" d="M12.65,42.95c-0.03-0.02-0.04-0.02-0.04-0.02s-0.07-0.02-0.17-0.01c-0.15,0.02-0.29,0.12-0.37,0.3
				c0,0,0,0,0,0c0,0,0,0,0,0c-0.08,0.17-0.08,0.38-0.01,0.54c0.04,0.11,0.1,0.17,0.1,0.17s0.02,0.02,0.06,0.04c0,0,0-0.01,0-0.01
				L12.65,42.95z"/>
			<path class="st45" d="M14.59,44.09c-0.02-0.02-0.04-0.03-0.06-0.05c-0.01,0-0.01-0.01-0.02-0.01c-0.01,0-0.01-0.01-0.02-0.01
				c-0.01-0.01-0.03-0.02-0.04-0.02c-0.29-0.16-1.18-0.68-1.61-0.93l-0.44,1.01c0,0.01-0.01,0.02-0.02,0.03
				c0.42,0.31,1.24,0.92,1.51,1.12c0.01,0.01,0.02,0.02,0.04,0.03c0.01,0,0.01,0.01,0.01,0.01c0.01,0,0.01,0.01,0.02,0.01
				c0.02,0.01,0.04,0.02,0.06,0.03c0.17,0.07,0.35,0.04,0.49-0.06c0,0,0,0,0,0c0.03-0.02,0.05-0.04,0.07-0.07
				c0,0,0.01-0.01,0.01-0.01c0.02-0.02,0.04-0.05,0.06-0.08c0,0,0-0.01,0.01-0.01c0.02-0.03,0.04-0.06,0.05-0.1c0,0,0,0,0,0
				c0,0,0,0,0,0c0.02-0.03,0.03-0.07,0.04-0.11c0,0,0-0.01,0-0.01c0.01-0.04,0.02-0.07,0.02-0.11c0,0,0-0.01,0-0.01
				c0-0.04,0.01-0.07,0.01-0.11c0,0,0,0,0-0.01C14.81,44.42,14.73,44.22,14.59,44.09z"/>
			<path class="st41" d="M12.85,43.07c-0.09-0.05-0.16-0.09-0.21-0.12l-0.43,1c0,0,0,0.01,0,0.01c0.04,0.03,0.11,0.08,0.19,0.14
				c0.01-0.01,0.01-0.02,0.02-0.03L12.85,43.07z"/>
		</g>
	</g>
	<g>
		<path class="st46" d="M14.85,38.19c0,0,0.13-0.92,0.14-1.24c0-0.33-0.17-0.61-0.17-0.61l-0.64-1.03l-1.19,0.9l0,0l-0.02,0.02
			l-0.02,0.01l0,0l-1.03,1.15l0.64,1.03c0,0,0.18,0.28,0.44,0.36c0.26,0.08,1.02,0.18,1.02,0.18s0.23,0.03,0.5,0.44
			c0.25,0.43,0.21,0.71,0.21,0.71s-0.13,0.92-0.14,1.24c0,0.33,0.17,0.61,0.17,0.61l0.64,1.03l1.19-0.9l0,0l0.02-0.02l0.02-0.01l0,0
			l1.03-1.15l-0.64-1.03c0,0-0.18-0.28-0.44-0.36c-0.26-0.08-1.02-0.18-1.02-0.18s-0.23-0.03-0.5-0.44
			C14.81,38.46,14.85,38.19,14.85,38.19z"/>
		<g>
			<path class="st47" d="M11.68,37.19c-0.04,0.03-0.04,0.11,0,0.16l0.11,0.17c0.04,0.06,0.09,0.08,0.13,0.04l1.2-1.11l-0.24-0.38
				L11.68,37.19z"/>
			<path class="st22" d="M14.33,35.18l-0.11-0.17c-0.04-0.06-0.09-0.08-0.13-0.04l-1.2,1.11l0.24,0.38l1.2-1.11
				C14.36,35.31,14.36,35.24,14.33,35.18z"/>
			<path class="st48" d="M17.9,41.1c0.04-0.03,0.04-0.11,0-0.16l-0.11-0.17c-0.04-0.06-0.09-0.08-0.13-0.04l-1.2,1.11l0.24,0.38
				L17.9,41.1z"/>
			<path class="st47" d="M15.26,43.11l0.11,0.17c0.04,0.06,0.09,0.08,0.13,0.04l1.2-1.11l-0.24-0.38l-1.2,1.11
				C15.22,42.98,15.22,43.05,15.26,43.11z"/>
		</g>
		<g>
			<g>
				<path class="st49" d="M12.6,37.94c0.05,0.07,0.34,0.48,0.74,0.55c0.45,0.08,1.12,0.12,1.12,0.12l-0.95-1.52L12.6,37.94z"/>
			</g>
			<g>
				<path class="st50" d="M14.43,36.25c0.04,0.07,0.29,0.53,0.24,1.02c-0.06,0.55-0.21,1.35-0.21,1.35l-0.95-1.52L14.43,36.25z"/>
			</g>
		</g>
		<g>
			<g>
				<path class="st50" d="M17.11,40.56c-0.05-0.07-0.34-0.48-0.74-0.55c-0.45-0.08-1.12-0.12-1.12-0.12l0.95,1.52L17.11,40.56z"/>
			</g>
			<g>
				<path class="st49" d="M15.28,42.25c-0.04-0.07-0.29-0.53-0.24-1.02c0.06-0.55,0.21-1.35,0.21-1.35l0.95,1.52L15.28,42.25z"/>
			</g>
		</g>
		<g>
			<path class="st50" d="M14.61,38.78c-0.02-0.02-0.04-0.03-0.06-0.02l0.05,0.09C14.62,38.84,14.62,38.8,14.61,38.78z"/>
			<path class="st49" d="M14.55,38.83c0.02,0.02,0.04,0.03,0.06,0.02l-0.05-0.09C14.54,38.78,14.54,38.81,14.55,38.83z"/>
			<path class="st49" d="M14.79,39.22c0.02,0.02,0.04,0.03,0.06,0.02l-0.05-0.09C14.78,39.17,14.78,39.2,14.79,39.22z"/>
			<path class="st50" d="M14.85,39.17c-0.02-0.02-0.04-0.03-0.06-0.02l0.05,0.09C14.87,39.23,14.87,39.2,14.85,39.17z"/>
			<path class="st50" d="M15.09,39.56c-0.02-0.02-0.04-0.03-0.06-0.02l0.05,0.09C15.11,39.62,15.11,39.59,15.09,39.56z"/>
			<path class="st49" d="M15.04,39.61c0.02,0.02,0.04,0.03,0.06,0.02l-0.05-0.09C15.02,39.56,15.02,39.59,15.04,39.61z"/>
		</g>
	</g>
	<g>
		<g>
			<path class="st51" d="M8.51,46.55c-0.05,0.1-0.09,0.21-0.09,0.33l-0.23,7.99c0,0.16,0.04,0.31,0.12,0.43l2.67-4.01l0-0.01
				l0.01,0.01l0.23-0.35L11,50.58l-0.01,0.01l0-0.01L8.51,46.55z"/>
			<path class="st51" d="M8.32,55.3c0,0-2.98-3.93-2.96-4.49c0.02-0.57,3.16-4.26,3.16-4.26L8.32,55.3z"/>
			<g>
				<polygon class="st17" points="13.07,48.09 12.91,53.72 7.49,53.63 7.66,48 				"/>
				<polygon class="st52" points="8.36,48.41 8.22,53.24 7.98,53.24 8.11,48.4 				"/>
				<polygon class="st52" points="9.47,48.43 9.33,53.26 9.08,53.26 9.22,48.42 				"/>
				<polygon class="st52" points="8.91,48.42 8.77,53.25 8.53,53.25 8.67,48.41 				"/>
				<polygon class="st52" points="10.02,48.44 9.88,53.27 9.64,53.27 9.78,48.43 				"/>
				<polygon class="st52" points="10.54,48.45 10.4,53.28 10.16,53.28 10.3,48.44 				"/>
				<polygon class="st52" points="11.09,48.46 10.95,53.29 10.71,53.29 10.85,48.45 				"/>
			</g>
			<g>
				<polygon class="st53" points="10.84,51.52 10.76,51.64 10.84,51.52 				"/>
				<polygon class="st54" points="10.01,52.77 10.01,52.77 10.76,51.64 				"/>
				<path class="st55" d="M10.84,51.52L10.84,51.52l-0.08,0.12l-0.75,1.12L8.32,55.3c0.12,0.18,0.31,0.29,0.53,0.3l3.66,0.07
					c0.19,0,0.37-0.08,0.49-0.22l-1.55-3.22l-0.45-0.94L10.84,51.52z"/>
				<path class="st55" d="M8.52,46.55l1.86,3.02l0,0l0.39,0.64l0.2,0.33L11,50.58l0.63-1.12l1.65-2.95c-0.12-0.16-0.3-0.26-0.5-0.27
					l-3.66-0.07C8.86,46.17,8.64,46.33,8.52,46.55z"/>
				<path class="st56" d="M11.63,49.46L11,50.58l-0.03-0.05c0,0,0.14,0.3,0.14,0.45c0,0.15-0.26,0.54-0.27,0.55l0.15-0.22l0.45,0.94
					L13,55.45c0.12-0.13,0.19-0.3,0.2-0.49l0.23-7.99c0.01-0.18-0.05-0.34-0.15-0.46L11.63,49.46z"/>
			</g>
		</g>
	</g>
	<g>
		<g>
			<g>
				<polygon class="st57" points="19.79,37.55 18.33,38.19 18.67,39.36 18.69,39.35 18.95,39.5 19.27,39.4 19.28,39.45 19.46,39.34 
					19.65,39.29 19.64,39.24 19.94,39.06 20.06,38.74 20.12,38.72 				"/>
				<g>
					<g>
						<path class="st58" d="M20.12,37.86c0.03,0.11-0.02,0.24-0.11,0.28l-1.59,0.7c-0.09,0.04-0.2-0.02-0.23-0.13l0,0
							c-0.03-0.11,0.02-0.24,0.11-0.28l1.59-0.7C19.99,37.69,20.09,37.75,20.12,37.86L20.12,37.86z"/>
						<path class="st58" d="M20.29,38.44c0.03,0.11-0.02,0.24-0.11,0.28l-1.59,0.7c-0.09,0.04-0.2-0.02-0.23-0.13l0,0
							c-0.03-0.11,0.02-0.24,0.11-0.28l1.59-0.7C20.15,38.26,20.26,38.32,20.29,38.44L20.29,38.44z"/>
						<path class="st58" d="M20.02,39.14c0.03,0.11-0.02,0.24-0.11,0.28l-0.76,0.33c-0.09,0.04-0.2-0.02-0.23-0.13l0,0
							c-0.03-0.11,0.02-0.24,0.11-0.28l0.76-0.33C19.89,38.97,19.99,39.03,20.02,39.14L20.02,39.14z"/>
					</g>
					<path class="st8" d="M17.4,32.14C17.4,32.14,17.4,32.14,17.4,32.14c-1.09,0.48-1.68,1.93-1.31,3.22
						c0.19,0.66,0.63,1.29,1.18,1.67l0.02,0.02c0.07,0.06,0.72,0.55,0.86,1.04c0.03,0.09,0.1,0.14,0.17,0.13l0,0.01l0.3-0.13
						l0.05-0.02l0.05-0.02L19,37.93l0.05-0.02l0.08-0.04l0.2-0.09l0.05-0.02l0.24-0.1l0.06-0.03l0-0.01l0.13-0.06
						c0.05-0.06,0.07-0.14,0.05-0.22c-0.12-0.43,0.06-1.21,0.14-1.48c0-0.01,0.01-0.03,0.01-0.03L20,35.79
						c0.22-0.72,0.24-1.54,0.06-2.19C19.68,32.31,18.49,31.65,17.4,32.14z"/>
				</g>
				<path class="st59" d="M19.15,35.23c-0.01-0.02-0.04-0.15-0.14-0.21c-0.06-0.03-0.12-0.03-0.19,0c-0.09,0.04-0.15,0.11-0.19,0.2
					c-0.06,0.18,0.01,0.38,0.02,0.41l0.01,0.03l-0.21,0.09l-0.05,0.02l-0.21,0.09l-0.01-0.03c-0.01-0.03-0.05-0.24-0.19-0.33
					c-0.07-0.05-0.15-0.05-0.25-0.01c-0.07,0.03-0.12,0.08-0.14,0.15c-0.04,0.12-0.01,0.25,0,0.27c0,0.02,0.03,0.12,0.11,0.17
					c0.06,0.04,0.13,0.04,0.22,0l0.22-0.1l0.59,2.05L18.82,38l-0.59-2.05l0.21-0.09l0.05-0.02l0.21-0.09l0.59,2.05l0.07-0.03
					l-0.59-2.05l0.22-0.1c0.08-0.04,0.14-0.1,0.17-0.17C19.19,35.35,19.16,35.25,19.15,35.23z M18.12,35.86l0.01,0.04L17.91,36
					c-0.06,0.03-0.12,0.03-0.16,0c-0.06-0.03-0.07-0.11-0.07-0.11l0,0l0,0c0,0-0.03-0.11,0-0.2c0.02-0.05,0.05-0.08,0.1-0.1
					c0.07-0.03,0.13-0.03,0.18,0C18.08,35.66,18.12,35.86,18.12,35.86z M19.09,35.41c-0.02,0.05-0.06,0.09-0.12,0.12l-0.22,0.1
					l-0.01-0.04c0,0-0.07-0.19-0.02-0.34c0.02-0.07,0.07-0.12,0.14-0.15c0.05-0.02,0.09-0.02,0.13,0c0.07,0.04,0.1,0.16,0.1,0.16
					l0,0l0,0C19.08,35.27,19.11,35.34,19.09,35.41z"/>
			</g>
		</g>
		<path class="st60" d="M17.04,36.12c-0.03,0.01-0.07,0.01-0.1-0.02c-0.01-0.01-0.17-0.16-0.34-0.44c-0.22-0.37-0.34-0.8-0.35-1.23
			c0-0.25,0.04-0.49,0.13-0.73c0.07-0.19,0.17-0.36,0.3-0.53c0.21-0.28,0.43-0.44,0.44-0.44c0.05-0.04,0.12-0.02,0.15,0.05
			c0.03,0.06,0.01,0.14-0.04,0.18c0,0-0.2,0.14-0.39,0.4c-0.25,0.33-0.37,0.69-0.37,1.07c0.01,0.93,0.59,1.47,0.6,1.47
			c0.05,0.04,0.06,0.12,0.02,0.18C17.08,36.09,17.06,36.11,17.04,36.12z"/>
	</g>
	<g>
		<g>
			<path class="st0" d="M11.72,38.72c-0.04,0.04-0.09,0.06-0.14,0.06c-0.19,0.01-0.38,0.02-0.57,0.03l-0.01,0
				c-0.25,0.01-0.51,0.02-0.76,0.03c-0.02,0-0.03,0.01-0.05,0.03c-0.01,0.01-0.02,0.02-0.03,0.03c-0.03,0.02-0.05,0.05-0.07,0.06
				c-0.44,0.38-1.03,0.47-1.52,0.23c-0.29-0.14-0.56-0.4-0.74-0.74c-0.23-0.35-0.36-0.82-0.34-1.27c0.01-0.58,0.25-1.14,0.63-1.5
				c0.14-0.13,0.29-0.26,0.46-0.42c0.08-0.07,0.15-0.14,0.23-0.21l0.13-0.12c0.17-0.15,0.34-0.31,0.51-0.46l0.01-0.01
				c0.19-0.17,0.42-0.3,0.66-0.36c0.5-0.12,1.07,0.08,1.43,0.51l0,0c0.06,0.08,0.09,0.13,0.14,0.2c0.25,0.38,0.39,0.73,0.42,1.1
				c0.05,0.54-0.09,1.11-0.39,1.53c-0.09,0.13-0.2,0.23-0.3,0.33l-0.09,0.08c0,0,0,0-0.01,0c0.06,0.05,0.12,0.1,0.19,0.15
				c0.09,0.07,0.18,0.14,0.27,0.22l0,0c0.06,0.06,0.08,0.14,0.08,0.23C11.83,38.56,11.79,38.66,11.72,38.72z M10.1,38.72
				c0.03-0.03,0.08-0.06,0.14-0.06c0.25-0.01,0.51-0.02,0.76-0.03l0.01,0c0.19-0.01,0.38-0.02,0.58-0.03c0.02,0,0.04-0.01,0.06-0.02
				c0.03-0.03,0.05-0.08,0.06-0.13c0-0.03,0-0.06-0.03-0.09c-0.08-0.07-0.16-0.14-0.25-0.21c-0.09-0.07-0.18-0.14-0.27-0.22
				l-0.07-0.07l0.07-0.07c0.03-0.03,0.06-0.05,0.08-0.08l0.09-0.08c0.1-0.09,0.2-0.18,0.27-0.3l0,0c0.27-0.38,0.41-0.9,0.36-1.39
				c-0.03-0.34-0.16-0.66-0.39-1.01l0,0c-0.04-0.06-0.07-0.11-0.13-0.19c-0.33-0.39-0.85-0.57-1.3-0.46
				c-0.22,0.06-0.43,0.17-0.6,0.33l-0.01,0.01C9.35,34.77,9.18,34.92,9,35.07l-0.13,0.12c-0.08,0.07-0.15,0.14-0.23,0.21
				c-0.17,0.15-0.32,0.29-0.46,0.41c-0.35,0.33-0.56,0.83-0.58,1.36c-0.01,0.42,0.1,0.84,0.32,1.16l0,0l0,0
				c0.17,0.31,0.41,0.55,0.68,0.68c0.45,0.22,0.99,0.14,1.39-0.21l0.01-0.01c0.01-0.01,0.03-0.03,0.05-0.05
				C10.07,38.74,10.09,38.73,10.1,38.72z"/>
			<path class="st0" d="M11.73,38.73c-0.05,0.04-0.1,0.06-0.15,0.06c-0.18,0.01-0.37,0.02-0.56,0.03l-0.02,0
				c-0.26,0.01-0.52,0.02-0.76,0.03c-0.01,0-0.02,0.01-0.04,0.02c-0.01,0.01-0.02,0.02-0.03,0.03c-0.01,0.01-0.02,0.02-0.03,0.03
				c-0.02,0.01-0.03,0.03-0.04,0.03c-0.44,0.38-1.05,0.47-1.54,0.23c-0.3-0.14-0.56-0.4-0.75-0.75c-0.24-0.36-0.36-0.82-0.35-1.28
				c0.02-0.58,0.25-1.15,0.64-1.51c0.14-0.12,0.29-0.26,0.46-0.42c0.08-0.07,0.15-0.14,0.23-0.21l0.13-0.12
				c0.17-0.15,0.34-0.31,0.51-0.46l0.01-0.01c0.19-0.17,0.42-0.3,0.67-0.36c0.5-0.12,1.08,0.08,1.44,0.52l0,0
				c0.06,0.09,0.1,0.13,0.14,0.2c0.26,0.38,0.39,0.73,0.43,1.11c0.05,0.55-0.09,1.12-0.4,1.54c-0.09,0.13-0.2,0.24-0.3,0.33
				l-0.07,0.07c0.05,0.04,0.11,0.09,0.16,0.13l0,0c0.09,0.07,0.18,0.14,0.27,0.22l0,0c0.06,0.06,0.09,0.15,0.09,0.25
				C11.85,38.57,11.8,38.67,11.73,38.73z M10.17,38.85c0.03-0.02,0.04-0.03,0.06-0.03c0.25-0.01,0.51-0.02,0.76-0.03l0.02,0
				c0.19-0.01,0.37-0.02,0.56-0.03c0.05,0,0.09-0.02,0.13-0.05c0.06-0.06,0.1-0.15,0.11-0.24c0-0.09-0.02-0.16-0.07-0.22l0,0
				c-0.08-0.08-0.18-0.15-0.26-0.22l0,0c-0.06-0.05-0.12-0.09-0.18-0.14c0,0-0.01-0.01-0.01-0.02c0-0.01,0-0.01,0.01-0.02l0.09-0.08
				c0.1-0.09,0.21-0.19,0.3-0.32c0.3-0.41,0.44-0.97,0.39-1.51c-0.03-0.37-0.17-0.72-0.42-1.09c-0.04-0.07-0.07-0.11-0.13-0.2l0,0
				c-0.35-0.42-0.92-0.62-1.41-0.5c-0.24,0.06-0.46,0.18-0.65,0.35l-0.01,0.01c-0.17,0.15-0.34,0.31-0.51,0.46L8.8,35.07
				c-0.08,0.07-0.15,0.14-0.23,0.21c-0.17,0.16-0.32,0.29-0.46,0.42c-0.38,0.35-0.61,0.91-0.63,1.48c-0.01,0.45,0.11,0.91,0.34,1.26
				c0,0,0,0,0,0c0.18,0.34,0.44,0.6,0.73,0.73c0.48,0.24,1.08,0.15,1.51-0.22c0,0,0,0,0,0c0.01-0.01,0.02-0.02,0.04-0.03
				c0.01-0.01,0.02-0.02,0.03-0.03C10.15,38.86,10.16,38.85,10.17,38.85z M11.65,38.6c-0.02,0.02-0.05,0.03-0.07,0.03
				c-0.18,0.01-0.36,0.02-0.54,0.02l-0.04,0c-0.26,0.01-0.51,0.02-0.76,0.03c-0.05,0-0.09,0.03-0.12,0.06
				c-0.01,0.01-0.02,0.02-0.03,0.03c-0.01,0.01-0.02,0.02-0.03,0.03c-0.01,0.01-0.02,0.02-0.03,0.02l-0.01,0.01
				c-0.4,0.35-0.96,0.44-1.41,0.21c-0.27-0.13-0.52-0.37-0.69-0.69l0,0l0,0c-0.22-0.33-0.33-0.75-0.32-1.17
				c0.01-0.53,0.23-1.05,0.58-1.38c0.14-0.13,0.29-0.26,0.46-0.41c0.08-0.07,0.15-0.14,0.23-0.21l0.15-0.13
				c0.17-0.15,0.33-0.3,0.5-0.45l0.01-0.01c0.18-0.16,0.39-0.27,0.61-0.33c0.46-0.11,0.98,0.08,1.31,0.47
				c0.06,0.08,0.09,0.12,0.13,0.19l0,0c0.24,0.35,0.37,0.68,0.4,1.03c0.05,0.5-0.09,1.03-0.36,1.41l0,0
				c-0.08,0.12-0.18,0.21-0.28,0.3l-0.09,0.08c-0.02,0.02-0.05,0.05-0.08,0.08l-0.05,0.05l0.05,0.05c0.09,0.08,0.18,0.15,0.27,0.22
				c0.09,0.07,0.17,0.13,0.25,0.21c0,0,0,0,0,0c0.03,0.04,0.04,0.08,0.04,0.11C11.71,38.51,11.68,38.56,11.65,38.6z M10.09,38.71
				c0.03-0.03,0.08-0.07,0.15-0.07c0.25-0.01,0.51-0.02,0.76-0.03l0.04,0c0.18-0.01,0.36-0.02,0.54-0.02c0.02,0,0.04-0.01,0.05-0.02
				c0.03-0.02,0.05-0.07,0.05-0.11c0-0.03-0.01-0.06-0.02-0.08c-0.08-0.07-0.16-0.14-0.25-0.2c-0.09-0.07-0.18-0.14-0.27-0.22
				l-0.07-0.07c0,0-0.01-0.01-0.01-0.02c0-0.01,0-0.01,0.01-0.02l0.07-0.07c0.03-0.03,0.06-0.06,0.09-0.08l0.09-0.08
				c0.09-0.08,0.19-0.18,0.27-0.29l0,0c0.27-0.37,0.4-0.89,0.36-1.37c-0.03-0.34-0.15-0.65-0.39-1l0,0
				c-0.04-0.06-0.07-0.11-0.13-0.18c-0.32-0.38-0.84-0.57-1.28-0.46c-0.22,0.06-0.42,0.17-0.59,0.32l-0.01,0.01
				c-0.17,0.15-0.33,0.3-0.5,0.45l-0.15,0.13c-0.08,0.07-0.15,0.14-0.23,0.21c-0.17,0.15-0.32,0.29-0.46,0.41
				c-0.34,0.32-0.56,0.82-0.57,1.34c-0.01,0.41,0.1,0.83,0.31,1.15l0,0c0,0,0,0,0,0l0,0c0.17,0.31,0.41,0.55,0.67,0.67
				c0.44,0.22,0.98,0.14,1.37-0.21c0,0,0,0,0,0L10,38.78c0,0,0,0,0,0c0.01,0,0.01-0.01,0.02-0.02c0.01-0.01,0.02-0.02,0.03-0.02
				C10.06,38.73,10.07,38.72,10.09,38.71z"/>
		</g>
	</g>
	<g>
		<g>
			<path class="st0" d="M38.29,40.19l0.03-0.02l-0.1-0.2L38.19,40c-0.12-0.14-0.32-0.17-0.47-0.06l-0.3,0.22
				c-0.15,0.11-0.22,0.34-0.17,0.54l-2.32,1.76l0.1,0.2l2.32-1.76c0.12,0.14,0.32,0.17,0.47,0.06l0.3-0.22
				C38.27,40.62,38.34,40.39,38.29,40.19z M38.02,40.54l-0.3,0.22c-0.08,0.06-0.18,0.04-0.24-0.04c-0.02-0.02-0.03-0.05-0.04-0.08
				c-0.03-0.1,0-0.22,0.08-0.28l0.3-0.22c0.08-0.06,0.18-0.04,0.24,0.04c0.01,0.01,0.02,0.02,0.02,0.04
				c0.01,0.01,0.01,0.03,0.02,0.04C38.14,40.36,38.1,40.48,38.02,40.54z"/>
			<path class="st0" d="M37.41,44.69l2.31-1.75l-0.1-0.2l-2.31,1.75c-0.12-0.14-0.32-0.17-0.47-0.06l-0.3,0.22
				c-0.15,0.11-0.22,0.34-0.17,0.54l-0.04,0.03l0.1,0.2l0.04-0.03c0.12,0.14,0.32,0.17,0.47,0.06l0.3-0.22
				C37.39,45.11,37.45,44.89,37.41,44.69z M37.14,45.03l-0.3,0.22c-0.08,0.06-0.18,0.04-0.24-0.04c-0.02-0.02-0.03-0.05-0.04-0.08
				c-0.03-0.1,0-0.22,0.08-0.28l0.3-0.22c0.08-0.06,0.18-0.04,0.24,0.04c0.01,0.01,0.02,0.02,0.02,0.04
				c0.01,0.01,0.01,0.03,0.02,0.04C37.25,44.85,37.22,44.97,37.14,45.03z"/>
			<path class="st0" d="M37.84,42.44l1.17-0.89l-0.1-0.2l-1.17,0.89c-0.12-0.14-0.32-0.17-0.47-0.06l-0.3,0.22
				c-0.15,0.11-0.22,0.34-0.17,0.54l-1.17,0.89l0.1,0.2l1.17-0.89c0.12,0.14,0.32,0.17,0.47,0.06l0.3-0.22
				C37.82,42.87,37.89,42.64,37.84,42.44z M37.57,42.79l-0.3,0.22c-0.08,0.06-0.18,0.04-0.24-0.04c-0.02-0.02-0.03-0.05-0.04-0.08
				c-0.03-0.1,0-0.22,0.08-0.28l0.3-0.22c0.08-0.06,0.18-0.04,0.24,0.04c0.01,0.01,0.02,0.02,0.02,0.04
				c0.01,0.01,0.01,0.03,0.02,0.04C37.69,42.61,37.65,42.73,37.57,42.79z"/>
		</g>
	</g>
	<g>
		<g>
			<path class="st0" d="M13.88,33.1l0.6,0.71l1.79-1.68l-0.92-1.17L13.88,33.1z M16.01,32.11l-1.52,1.42l-0.38-0.45l1.24-1.8
				L16.01,32.11z"/>
			<path class="st0" d="M17.02,30.01c-0.21-0.18-0.41-0.28-0.61-0.28c-0.68-0.01-0.99,1.05-1.01,1.1l-0.02,0.06l0.94,1.24l0.04,0
				c0.46-0.04,0.85-0.4,0.97-0.91C17.46,30.75,17.34,30.29,17.02,30.01z M16.4,31.91l-0.81-1.07c0.07-0.21,0.34-0.9,0.82-0.89
				c0.16,0,0.33,0.08,0.51,0.24c0.25,0.22,0.35,0.59,0.26,0.97C17.1,31.48,16.85,31.85,16.4,31.91z"/>
			<path class="st0" d="M15.05,33.97c-0.05-0.06-0.11-0.09-0.17-0.09c-0.13,0-0.28,0.11-0.42,0.22c-0.11,0.09-0.24,0.19-0.33,0.19
				c-0.01,0-0.03,0-0.04-0.01c-0.12-0.07-0.04-0.47,0.05-0.71l0.02-0.05L14,33.43l-0.02,0.05c-0.03,0.08-0.29,0.81,0.04,0.99
				c0.03,0.02,0.07,0.03,0.1,0.03c0.14,0,0.28-0.11,0.43-0.22c0.12-0.09,0.24-0.19,0.32-0.19c0.02,0,0.04,0.01,0.06,0.03
				c0.19,0.22,0.16,0.56,0.16,0.56l-0.01,0.06l0.17,0.02l0.01-0.06C15.26,34.69,15.3,34.26,15.05,33.97z"/>
		</g>
	</g>
	<g>
		<polygon class="st22" points="23.47,43.15 19.34,37.73 25.55,30.76 29.68,36.18 		"/>
		<g>
			<polygon class="st61" points="23.5,42.3 20.05,37.76 25.3,31.87 28.75,36.4 			"/>
			<g>
				<polygon class="st62" points="23.2,38.31 21.72,36.36 21.84,36.24 23.32,38.18 				"/>
				<polygon class="st62" points="23.03,38.51 21.54,36.56 21.66,36.43 23.14,38.38 				"/>
				<polygon class="st62" points="22.85,38.71 21.37,36.76 21.48,36.63 22.96,38.58 				"/>
				<polygon class="st62" points="22.67,38.91 21.19,36.96 21.3,36.83 22.79,38.78 				"/>
				<polygon class="st62" points="22.5,39.11 21.01,37.16 21.13,37.03 22.61,38.98 				"/>
				<polygon class="st62" points="22.32,39.3 20.84,37.36 20.95,37.23 22.43,39.18 				"/>
				<polygon class="st62" points="22.14,39.5 20.66,37.55 20.77,37.43 22.26,39.38 				"/>
				<polygon class="st62" points="21.97,39.7 20.48,37.75 20.6,37.63 22.08,39.57 				"/>
			</g>
			<g>
				<polygon class="st62" points="24.85,40.47 23.36,38.52 23.48,38.4 24.96,40.34 				"/>
				<polygon class="st62" points="24.67,40.67 23.19,38.72 23.3,38.59 24.78,40.54 				"/>
				<polygon class="st62" points="24.49,40.87 23.01,38.92 23.13,38.79 24.61,40.74 				"/>
				<polygon class="st62" points="24.32,41.07 22.83,39.12 22.95,38.99 24.43,40.94 				"/>
				<polygon class="st62" points="24.14,41.27 22.66,39.32 22.77,39.19 24.25,41.14 				"/>
				<polygon class="st62" points="23.96,41.46 22.48,39.52 22.59,39.39 24.08,41.34 				"/>
				<polygon class="st62" points="23.79,41.66 22.3,39.71 22.42,39.59 23.9,41.54 				"/>
			</g>
			<polygon class="st63" points="22.59,36.06 22.32,35.7 22.58,35.4 22.85,35.76 			"/>
			<polygon class="st64" points="22.21,36.48 21.94,36.12 22.2,35.83 22.47,36.19 			"/>
			<polygon class="st65" points="24.19,38.15 23.91,37.79 24.17,37.5 24.45,37.86 			"/>
			<polygon class="st66" points="23.81,38.58 23.53,38.22 23.79,37.93 24.07,38.29 			"/>
			<polygon class="st67" points="23.13,36.59 22.81,36.17 22.92,36.05 23.24,36.47 			"/>
			<polygon class="st67" points="22.75,37.02 22.43,36.6 22.52,36.49 22.85,36.91 			"/>
			<polygon class="st67" points="24.69,38.64 24.37,38.22 24.48,38.1 24.8,38.52 			"/>
			<polygon class="st67" points="24.31,39.07 23.99,38.65 24.09,38.54 24.41,38.96 			"/>
			<g>
				<polygon class="st62" points="26.91,38.1 23.81,34.02 23.92,33.89 27.02,37.97 				"/>
				<polygon class="st62" points="26.73,38.3 23.63,34.22 23.75,34.09 26.85,38.17 				"/>
				<polygon class="st62" points="26.56,38.49 23.45,34.42 23.57,34.29 26.67,38.37 				"/>
				<polygon class="st62" points="26.38,38.69 23.28,34.62 23.39,34.49 26.49,38.56 				"/>
				<polygon class="st62" points="26.2,38.89 23.1,34.81 23.22,34.69 26.32,38.76 				"/>
				<polygon class="st62" points="26.03,39.09 22.92,35.01 23.04,34.89 26.14,38.96 				"/>
				<polygon class="st62" points="25.85,39.29 22.75,35.21 22.86,35.08 25.96,39.16 				"/>
			</g>
			<g>
				<g>
					<g>
						<g>
							<polygon class="st62" points="27.53,36.72 26.04,34.76 26.57,34.15 28.06,36.11 							"/>
						</g>
					</g>
				</g>
				<polygon class="st67" points="27.25,36.99 25.79,35.07 25.92,34.92 27.38,36.84 				"/>
				<polygon class="st67" points="26.84,37.45 25.38,35.54 25.51,35.38 26.97,37.3 				"/>
				<polygon class="st67" points="27.04,37.22 25.58,35.3 25.72,35.15 27.18,37.07 				"/>
			</g>
			<g>
				<g>
					<polygon class="st67" points="26.29,34.24 25.06,32.62 25.2,32.46 26.43,34.09 					"/>
					<polygon class="st67" points="25.88,34.7 24.65,33.08 24.78,32.93 26.02,34.55 					"/>
					<polygon class="st67" points="26.09,34.47 24.85,32.85 24.99,32.7 26.22,34.32 					"/>
				</g>
				<g>
					<polygon class="st67" points="25.67,34.94 24.44,33.32 24.57,33.16 25.81,34.79 					"/>
					<polygon class="st67" points="25.26,35.4 24.02,33.78 24.16,33.63 25.4,35.25 					"/>
					<polygon class="st67" points="25.47,35.17 24.23,33.55 24.37,33.39 25.6,35.02 					"/>
				</g>
			</g>
		</g>
		<path class="st17" d="M28.05,35.23l-1.85-2.42c-0.04-0.05-0.03-0.13,0.01-0.17l0.34-0.38c0.04-0.05,0.11-0.04,0.14,0.01l1.85,2.42
			c0.04,0.05,0.03,0.13-0.01,0.17l-0.34,0.38C28.15,35.28,28.08,35.28,28.05,35.23z M26.64,32.32c-0.01-0.01-0.03-0.02-0.04,0
			l-0.34,0.38c-0.01,0.01-0.01,0.04,0,0.05l1.85,2.42c0.01,0.01,0.03,0.02,0.04,0l0.34-0.38c0.01-0.01,0.01-0.04,0-0.05L26.64,32.32
			z"/>
		<path class="st68" d="M26.61,32.8c0.01,0.12,0.01,0.25-0.01,0.37l1.18,1.55c0.1-0.01,0.21-0.01,0.31,0.02
			c0.07,0.09,0.2,0.1,0.28,0.01l0.15-0.17c0.08-0.09,0.09-0.24,0.01-0.34l-1.47-1.93c-0.07-0.1-0.2-0.1-0.28-0.01l-0.15,0.17
			C26.55,32.55,26.54,32.7,26.61,32.8z"/>
	</g>
	<g>
		<path class="st22" d="M11.18,50.98c-0.23,8.04,4.95,14.65,11.58,14.77c6.62,0.12,12.18-6.3,12.41-14.34
			c0.23-8.04-4.95-14.65-11.58-14.77C16.97,36.53,11.41,42.95,11.18,50.98z"/>
		<path class="st69" d="M15.1,43.28c-0.07,0.56-0.11,1.12-0.13,1.69c-0.24,8.34,5.14,15.2,12.02,15.33c1.38,0.02,2.71-0.22,3.96-0.7
			c-2.01,2.72-4.93,4.42-8.14,4.37c-5.8-0.1-10.33-5.89-10.13-12.92C12.76,48.1,13.66,45.41,15.1,43.28z"/>
		<path class="st17" d="M14.97,44.97c0.02-0.57,0.06-1.14,0.13-1.69c2.01-2.97,5.07-4.85,8.44-4.79c5.8,0.1,10.33,5.89,10.13,12.92
			c-0.09,3.14-1.11,5.99-2.72,8.18c-1.25,0.48-2.59,0.73-3.96,0.7C20.11,60.18,14.73,53.32,14.97,44.97z"/>
		<g>
			<g>
				<path class="st22" d="M22.66,39.96C22.64,40.53,23,40.99,23.47,41c0.46,0.01,0.85-0.44,0.87-1.01c0.02-0.56-0.35-1.03-0.81-1.04
					C23.06,38.95,22.67,39.4,22.66,39.96z"/>
				<path class="st22" d="M22.01,62.46c-0.02,0.56,0.35,1.03,0.81,1.04c0.46,0.01,0.85-0.44,0.87-1.01
					c0.02-0.56-0.35-1.03-0.81-1.04C22.42,61.45,22.03,61.9,22.01,62.46z"/>
			</g>
		</g>
		<g>
			<g>
				<path class="st22" d="M13.87,52.08c0.46,0.01,0.85-0.44,0.87-1.01c0.02-0.56-0.35-1.03-0.81-1.04
					c-0.46-0.01-0.85,0.44-0.87,1.01C13.05,51.61,13.41,52.07,13.87,52.08z"/>
				<path class="st22" d="M32.42,52.41c0.46,0.01,0.85-0.44,0.87-1.01c0.02-0.56-0.35-1.03-0.81-1.04
					c-0.46-0.01-0.85,0.44-0.87,1.01C31.59,51.94,31.95,52.4,32.42,52.41z"/>
			</g>
		</g>
		<path class="st70" d="M27.32,41.85c-0.01,0.35,0.22,0.64,0.5,0.64c0.29,0.01,0.53-0.27,0.54-0.62c0.01-0.35-0.22-0.64-0.5-0.64
			C27.57,41.22,27.33,41.5,27.32,41.85z"/>
		<path class="st70" d="M30.56,46.42c-0.01,0.35,0.22,0.64,0.5,0.64c0.29,0.01,0.53-0.27,0.54-0.62c0.01-0.35-0.22-0.64-0.5-0.64
			C30.81,45.79,30.57,46.07,30.56,46.42z"/>
		<path class="st70" d="M14.85,55.64c-0.01,0.35,0.22,0.64,0.5,0.64c0.29,0.01,0.53-0.27,0.54-0.62c0.01-0.35-0.22-0.64-0.5-0.64
			C15.11,55.01,14.86,55.29,14.85,55.64z"/>
		<path class="st70" d="M18.09,60.21c-0.01,0.35,0.22,0.64,0.5,0.64c0.29,0.01,0.53-0.27,0.54-0.62c0.01-0.35-0.22-0.64-0.5-0.64
			C18.34,59.58,18.1,59.86,18.09,60.21z"/>
		<path class="st70" d="M30.59,55.36c-0.29-0.01-0.53,0.27-0.54,0.62c-0.01,0.35,0.22,0.64,0.5,0.64c0.29,0.01,0.53-0.27,0.54-0.62
			C31.1,55.65,30.88,55.36,30.59,55.36z"/>
		<path class="st70" d="M26.76,59.37c-0.29-0.01-0.53,0.27-0.54,0.62c-0.01,0.35,0.22,0.64,0.5,0.64c0.29,0.01,0.53-0.27,0.54-0.62
			C27.27,59.67,27.05,59.38,26.76,59.37z"/>
		<path class="st70" d="M19.47,40.52c-0.29-0.01-0.53,0.27-0.54,0.62c-0.01,0.35,0.22,0.64,0.5,0.64c0.29,0.01,0.53-0.27,0.54-0.62
			C19.98,40.81,19.76,40.52,19.47,40.52z"/>
		<path class="st70" d="M15.64,44.53c-0.29-0.01-0.53,0.27-0.54,0.62c-0.01,0.35,0.22,0.64,0.5,0.64c0.29,0.01,0.53-0.27,0.54-0.62
			C16.15,44.82,15.93,44.54,15.64,44.53z"/>
		<path class="st22" d="M18.81,58.69l3.74-7.04c-0.03-0.11-0.05-0.22-0.05-0.35l0-0.06c0.01-0.5,0.36-0.89,0.77-0.89
			c0.41,0.01,0.73,0.42,0.72,0.91l0,0.06c-0.01,0.5-0.36,0.89-0.77,0.89c-0.05,0-0.09-0.01-0.14-0.02l-3.68,6.94
			c-0.1,0.2-0.32,0.26-0.48,0.14C18.75,59.15,18.7,58.89,18.81,58.69z"/>
		<path class="st70" d="M22.03,51.23c-0.02,0.76,0.47,1.38,1.09,1.39c0.62,0.01,1.15-0.59,1.17-1.35c0.02-0.58-0.27-1.09-0.69-1.29
			c0-0.01,0-0.01,0-0.02l0.16-5.39c0.01-0.27-0.17-0.5-0.39-0.5c-0.22,0-0.41,0.21-0.42,0.49l-0.16,5.39c0,0.01,0,0.01,0,0.02
			C22.37,50.15,22.05,50.64,22.03,51.23z M22.58,51.24c0.01-0.39,0.28-0.7,0.6-0.69c0.32,0.01,0.57,0.33,0.56,0.71
			c-0.01,0.39-0.28,0.7-0.6,0.69C22.82,51.94,22.57,51.62,22.58,51.24z"/>
	</g>
</g>
<g>
	<defs>
		<rect id="SVGID_1_" width="100" height="100"/>
	</defs>
	<clipPath id="SVGID_2_">
		<use xlink:href="#SVGID_1_"  style="overflow:visible;"/>
	</clipPath>
	<g class="st71">
		<text transform="matrix(1 0 0 1 45.4058 55.4531)" class="st22 st72 st73">Clockly</text>
	</g>
</g>
</svg>
