<?xml version="1.0"?>
<svg xmlns="http://www.w3.org/2000/svg" height="512px" viewBox="0 0 512 512" width="512px"><path d="m512 460.789062v-30.585937c0-4.140625-3.359375-7.5-7.5-7.5s-7.5 3.359375-7.5 7.5v30.585937c0 19.96875-16.242188 36.210938-36.210938 36.210938h-114.457031v-150.664062h150.667969v53.867187c0 4.144531 3.359375 7.5 7.5 7.5s7.5-3.355469 7.5-7.5v-348.992187c0-28.238282-22.972656-51.210938-51.210938-51.210938h-409.578124c-28.238282 0-51.210938 22.972656-51.210938 51.210938v29.992187c0 4.144531 3.359375 7.5 7.5 7.5s7.5-3.355469 7.5-7.5v-29.992187c0-19.96875 16.246094-36.210938 36.210938-36.210938h114.453124v150.667969h-150.664062v-54.464844c0-4.140625-3.359375-7.5-7.5-7.5s-7.5 3.359375-7.5 7.5v349.585937c0 28.238282 22.972656 51.210938 51.210938 51.210938h409.578124c28.238282 0 51.210938-22.972656 51.210938-51.210938zm-331.332031-280.121093h150.667969v150.667969h-150.667969zm316.332031 150.664062h-150.667969v-150.664062h150.667969zm0-280.121093v114.457031h-150.667969v-150.667969h114.457031c19.96875 0 36.210938 16.242188 36.210938 36.210938zm-316.332031-36.210938h150.667969v150.667969h-150.667969zm-15 165.667969v150.667969h-150.667969v-150.667969zm-150.667969 280.121093v-114.453124h150.667969v150.664062h-114.457031c-19.96875 0-36.210938-16.242188-36.210938-36.210938zm165.667969-114.453124h150.667969v150.664062h-150.667969zm0 0" fill="#444444"/><path d="m128.542969 268.878906c4.140625 0 7.5-3.359375 7.5-7.5v-23.070312c0-4.140625-3.359375-7.5-7.5-7.5-4.144531 0-7.5 3.359375-7.5 7.5v23.070312c0 4.140625 3.355469 7.5 7.5 7.5zm0 0" fill="#444444"/><path d="m383.457031 268.878906c4.144531 0 7.5-3.359375 7.5-7.5v-23.070312c0-4.140625-3.355469-7.5-7.5-7.5-4.140625 0-7.5 3.359375-7.5 7.5v23.070312c0 4.140625 3.359375 7.5 7.5 7.5zm0 0" fill="#444444"/><path d="m284.949219 255.773438c-3.121094-2.726563-7.855469-2.410157-10.585938.710937-4.476562 5.121094-11.167969 8.058594-18.363281 8.058594s-13.886719-2.9375-18.367188-8.058594c-2.726562-3.117187-7.464843-3.4375-10.582031-.710937-3.117187 2.726562-3.4375 7.464843-.710937 10.582031 7.328125 8.382812 18.136718 13.191406 29.660156 13.191406s22.332031-4.808594 29.660156-13.191406c2.726563-3.117188 2.40625-7.855469-.710937-10.582031zm0 0" fill="#444444"/></svg>
